<?xml version="1.0" encoding="UTF-8" standalone="no"?>
<svg
   xmlns:dc="http://purl.org/dc/elements/1.1/"
   xmlns:cc="http://creativecommons.org/ns#"
   xmlns:rdf="http://www.w3.org/1999/02/22-rdf-syntax-ns#"
   xmlns:svg="http://www.w3.org/2000/svg"
   xmlns="http://www.w3.org/2000/svg"
   xmlns:sodipodi="http://sodipodi.sourceforge.net/DTD/sodipodi-0.dtd"
   xmlns:inkscape="http://www.inkscape.org/namespaces/inkscape"
   height="474.00555"
   viewBox="0 0 118.5 118.50139"
   width="474"
   version="1.1"
   id="svg863"
   sodipodi:docname="icon.svg"
   inkscape:version="0.92.4 (5da689c313, 2019-01-14)"
   inkscape:export-filename="D:\Users\gciatto\Work\Code\coordination\icon.png"
   inkscape:export-xdpi="119.99382"
   inkscape:export-ydpi="119.99382">
  <metadata
     id="metadata869">
    <rdf:RDF>
      <cc:Work
         rdf:about="">
        <dc:format>image/svg+xml</dc:format>
        <dc:type
           rdf:resource="http://purl.org/dc/dcmitype/StillImage" />
        <dc:title></dc:title>
      </cc:Work>
    </rdf:RDF>
  </metadata>
  <defs
     id="defs867" />
  <sodipodi:namedview
     pagecolor="#ffffff"
     bordercolor="#666666"
     borderopacity="1"
     objecttolerance="10"
     gridtolerance="10"
     guidetolerance="10"
     inkscape:pageopacity="0"
     inkscape:pageshadow="2"
     inkscape:window-width="1920"
     inkscape:window-height="1001"
     id="namedview865"
     showgrid="false"
     fit-margin-top="0"
     fit-margin-left="0"
     fit-margin-right="0"
     fit-margin-bottom="0"
     inkscape:zoom="1.3702532"
     inkscape:cx="171.9696"
     inkscape:cy="311.05322"
     inkscape:window-x="-9"
     inkscape:window-y="-9"
     inkscape:window-maximized="1"
     inkscape:current-layer="svg863" />
  <g
     id="g1002">
    <path
       style="fill:#aa7e54"
       inkscape:connector-curvature="0"
       id="path843"
       d="M 87.421,112.399 61.93,61.73 59.25,56.41 56.57,61.73 31.079,112.399 a 3,3 0 0 0 2.681,4.351 3,3 0 0 0 2.681,-1.653 L 59.25,69.76 82.059,115.097 a 3,3 0 0 0 2.681,1.653 3,3 0 0 0 2.681,-4.351 z" />
    <path
       style="fill:#e2a76f"
       inkscape:connector-curvature="0"
       id="path845"
       d="m 56.25,1.75 h 6 v 20.5 h -6 z" />
    <path
       style="fill:#82bc98;fill-opacity:1"
       inkscape:connector-curvature="0"
       id="path847"
       d="m 6.875,9.25 h 104.75 v 71.5 H 6.875 Z" />
    <path
       style="fill:#e2a76f"
       inkscape:connector-curvature="0"
       id="path849"
       d="m 1.75,76.25 h 115 v 9 h -115 z" />
    <path
       inkscape:connector-curvature="0"
       id="path853"
       d="m 111.63,20.417 a 1.75,1.75 0 0 0 -1.75,1.75 v 3.416 a 1.75,1.75 0 0 0 3.5,0 v -3.416 a 1.75,1.75 0 0 0 -1.75,-1.75 z"
       style="fill:#20334d" />
    <path
       inkscape:connector-curvature="0"
       id="path855"
       d="M 103.875,40.333 V 52.75 a 1.75,1.75 0 1 0 3.5,0 V 40.333 a 1.75,1.75 0 0 0 -3.5,0 z"
       style="fill:#20334d" />
    <path
       inkscape:connector-curvature="0"
       id="path857"
       d="m 116.75,74.5 h -3.37 V 31.75 a 1.75,1.75 0 0 0 -3.5,0 V 74.5 H 26.594 a 1.75,1.75 0 1 0 0,3.5 H 115 v 5.5 H 3.5 V 78 H 18 a 1.75,1.75 0 0 0 0,-3.5 H 8.62 V 11 h 101.26 v 5.25 a 1.75,1.75 0 0 0 3.5,0 v -7 A 1.75,1.75 0 0 0 111.63,7.5 H 64 V 1.75 A 1.75,1.75 0 0 0 62.25,0 h -6 A 1.75,1.75 0 0 0 54.5,1.75 V 7.5 H 6.87 A 1.75,1.75 0 0 0 5.12,9.25 V 74.5 H 1.75 A 1.75,1.75 0 0 0 0,76.25 v 9 A 1.75,1.75 0 0 0 1.75,87 h 40.151 l -2.359,4.688 a 1.75,1.75 0 1 0 3.126,1.573 L 45.819,87 h 2.8 l -13.742,27.312 a 1.2501914,1.2501914 0 1 1 -2.233,-1.125 l 6.828,-13.572 a 1.75,1.75 0 0 0 -3.127,-1.572 l -6.829,13.573 a 4.7503176,4.7503176 0 0 0 8.487,4.27 L 52.538,87 h 13.424 l 14.536,28.888 a 4.7503237,4.7503237 0 1 0 8.485,-4.274 L 76.599,87 h 40.151 a 1.75,1.75 0 0 0 1.75,-1.75 v -9 A 1.75,1.75 0 0 0 116.75,74.5 Z M 58,3.5 h 2.5 v 4 H 58 Z M 85.858,113.189 A 1.249,1.249 0 0 1 84.74,115 1.26,1.26 0 0 1 83.624,114.313 L 69.88,87 h 2.8 z"
       style="fill:#20334d" />
    <flowRoot
       transform="matrix(0.25,0,0,0.25,-4.75,-4.75)"
       style="font-style:normal;font-weight:normal;font-size:40px;line-height:1.25;font-family:sans-serif;letter-spacing:0px;word-spacing:0px;fill:#000000;fill-opacity:1;stroke:none"
       id="flowRoot891"
       xml:space="preserve"><flowRegion
         id="flowRegion893"><rect
           y="382.73267"
           x="-693.22772"
           height="51.960396"
           width="103.92079"
           id="rect895" /></flowRegion><flowPara
         id="flowPara897"></flowPara></flowRoot>    <path
       style="fill:#e6e6e6;fill-opacity:1;stroke-width:0.90554726"
       inkscape:connector-curvature="0"
       d="m 42.943056,46.882064 c -0.950823,-0.459114 -2.012123,-0.724439 -3.136813,-0.724439 -3.994374,0 -7.244386,3.250009 -7.244386,7.244378 0,3.994369 3.250012,7.244378 7.244386,7.244378 2.50656,0 4.718802,-1.280444 6.020079,-3.221032 l 6.843225,3.425686 c -0.117717,0.517067 -0.185639,1.054057 -0.185639,1.60644 0,3.994369 3.25,7.244378 7.244374,7.244378 3.994374,0 7.244374,-3.250009 7.244374,-7.244378 0,-1.501398 -0.459109,-2.896846 -1.245129,-4.05504 l 9.616014,-10.054291 c 1.206193,0.894682 2.693096,1.43167 4.30678,1.43167 3.994374,0 7.244386,-3.250008 7.244386,-7.244378 0,-3.994369 -3.250012,-7.244378 -7.244386,-7.244378 -1.671643,0 -3.207443,0.574116 -4.43537,1.528564 l -9.770856,-9.770855 c 0.954443,-1.227922 1.528561,-2.76373 1.528561,-4.435371 0,-3.994369 -3.25,-7.244378 -7.244374,-7.244378 -3.994374,0 -7.244374,3.250009 -7.244374,7.244378 0,0.550573 0.06706,1.085751 0.184728,1.601913 l -6.42214,2.339934 c -1.204383,-2.337217 -3.635769,-3.941847 -6.440253,-3.941847 -3.994374,0 -7.244386,3.250009 -7.244386,7.244379 0,3.994369 3.250012,7.244378 7.244386,7.244378 1.030517,0 2.009403,-0.219143 2.897747,-0.609434 l 3.333324,5.609866 z m -3.136813,11.953222 c -2.996452,0 -5.43328,-2.436826 -5.43328,-5.433283 0,-2.996455 2.436828,-5.433283 5.43328,-5.433283 2.996452,0 5.43328,2.436828 5.43328,5.433283 0,2.996457 -2.436828,5.433283 -5.43328,5.433283 z m 6.826922,-3.032677 c 0.265318,-0.75251 0.417451,-1.558446 0.417451,-2.400606 0,-2.221307 -1.00696,-4.209889 -2.585329,-5.539232 l 2.604354,-4.02244 7.851995,13.212838 c -0.661051,0.588606 -1.214333,1.293121 -1.624556,2.085476 z M 59.728282,29.857775 c 1.671643,0 3.207444,-0.574118 4.43537,-1.528565 l 9.771767,9.771761 c -0.585901,0.753415 -1.024175,1.623647 -1.276823,2.570848 l -5.68865,-0.782392 c -8.86e-4,-0.02354 0.0024,-0.04709 0.0024,-0.07063 0,-3.99437 -3.249998,-7.244378 -7.244373,-7.244378 -2.506559,0 -4.719713,1.280444 -6.020079,3.221032 l -1.080312,-0.539707 3.964476,-6.122405 c 0.949926,0.459112 2.011226,0.724437 3.135915,0.724437 z m 0.905546,25.417806 v -8.275796 c 2.943024,-0.369464 5.337297,-2.508367 6.087091,-5.317374 l 5.688648,0.782392 c 0,0.02354 -0.0036,0.04709 -0.0036,0.07063 0,1.729596 0.610331,3.317021 1.625455,4.563959 l -9.508257,9.942003 C 63.457301,56.09691 62.116189,55.462121 60.633805,55.27558 Z m -0.905546,-20.89007 c 2.996452,0 5.43328,2.436827 5.43328,5.433284 0,2.996456 -2.436828,5.433284 -5.43328,5.433284 -2.996452,0 -5.43328,-2.436828 -5.43328,-5.433284 0,-2.996457 2.436828,-5.433284 5.43328,-5.433284 z m -6.826921,3.032677 c -0.265331,0.752511 -0.417453,1.558447 -0.417453,2.400607 0,3.687388 2.770968,6.733649 6.338828,7.181895 v 8.275796 c -0.858461,0.107756 -1.668922,0.364936 -2.406944,0.746172 L 48.168066,42.143334 51.63722,36.786117 Z m 6.826921,30.472571 c -2.996452,0 -5.43328,-2.436828 -5.43328,-5.433284 0,-2.996456 2.436828,-5.433284 5.43328,-5.433284 2.996452,0 5.43328,2.436828 5.43328,5.433284 0,2.996456 -2.436828,5.433284 -5.43328,5.433284 z M 79.650321,37.102153 c 2.996452,0 5.43328,2.436828 5.43328,5.433283 0,2.996457 -2.436828,5.433284 -5.43328,5.433284 -2.996452,0 -5.43328,-2.436827 -5.43328,-5.433284 0,-2.996455 2.436828,-5.433283 5.43328,-5.433283 z M 59.728282,17.180112 c 2.996452,0 5.43328,2.436828 5.43328,5.433284 0,2.996457 -2.436828,5.433284 -5.43328,5.433284 -2.996452,0 -5.43328,-2.436827 -5.43328,-5.433284 0,-2.996456 2.436828,-5.433284 5.43328,-5.433284 z m -6.440253,8.735815 c 0.442818,0.859365 1.048629,1.619119 1.781208,2.236702 l -4.071333,6.288121 -4.364739,-2.18237 c 0.265318,-0.75251 0.417451,-1.558447 0.417451,-2.400605 0,-0.550573 -0.06706,-1.085752 -0.184726,-1.601914 z m -18.915066,3.941848 c 0,-2.996457 2.436828,-5.433285 5.43328,-5.433285 2.996452,0 5.43328,2.436828 5.43328,5.433285 0,2.996456 -2.436828,5.433283 -5.43328,5.433283 -2.996452,0 -5.43328,-2.436827 -5.43328,-5.433283 z m 9.884041,5.704042 c 0.606724,-0.474507 1.139184,-1.039568 1.569318,-1.680696 l 4.180912,2.090002 -2.871494,4.434466 z"
       id="path968" />
    <flowRoot
       style="fill:black;fill-opacity:1;stroke:none;font-family:sans-serif;font-style:normal;font-weight:normal;font-size:40px;line-height:1.25;letter-spacing:0px;word-spacing:0px"
       id="flowRoot978"
       xml:space="preserve"><flowRegion
         id="flowRegion980"><rect
           y="470.42102"
           x="-331.99588"
           height="897.07025"
           width="858.92346"
           id="rect982" /></flowRegion><flowPara
         id="flowPara984"></flowPara></flowRoot>  </g>
</svg>
