<?xml version="1.0" encoding="UTF-8"?><svg xmlns="http://www.w3.org/2000/svg" xmlns:xlink="http://www.w3.org/1999/xlink" fill-opacity="1" color-rendering="auto" color-interpolation="auto" text-rendering="auto" stroke="black" stroke-linecap="square" width="1947" stroke-miterlimit="10" shape-rendering="auto" stroke-opacity="1" fill="black" stroke-dasharray="none" font-weight="normal" stroke-width="1" height="560" font-family="'Dialog'" font-style="normal" stroke-linejoin="miter" font-size="12px" stroke-dashoffset="0" image-rendering="auto">
  <!--Generated by ySVG 2.5-->
  <defs id="genericDefs"/>
  <g>
    <defs id="defs1">
      <clipPath clipPathUnits="userSpaceOnUse" id="clipPath1">
        <path d="M0 0 L1947 0 L1947 560 L0 560 L0 0 Z"/>
      </clipPath>
      <clipPath clipPathUnits="userSpaceOnUse" id="clipPath2">
        <path d="M-636 15 L1311 15 L1311 575 L-636 575 L-636 15 Z"/>
      </clipPath>
      <clipPath clipPathUnits="userSpaceOnUse" id="clipPath3">
        <path d="M-640 11 L1307 11 L1307 571 L-640 571 L-640 11 Z"/>
      </clipPath>
    </defs>
    <g fill="white" text-rendering="geometricPrecision" shape-rendering="geometricPrecision" transform="translate(636,-15)" stroke="white">
      <rect x="-636" width="1947" height="560" y="15" clip-path="url(#clipPath2)" stroke="none"/>
    </g>
    <g fill="rgb(153,204,0)" text-rendering="geometricPrecision" shape-rendering="geometricPrecision" transform="matrix(1,0,0,1,636,-15)" stroke="rgb(153,204,0)">
      <path d="M76.6302 30.4092 L203.6301 30.4092 L203.6301 45.4092 L218.6301 45.4092 L218.6301 58.4092 L76.6302 58.4092 Z" stroke="none" clip-path="url(#clipPath2)"/>
      <path fill="white" d="M203.6301 30.4092 L203.6301 45.4092 L218.6301 45.4092 Z" clip-path="url(#clipPath2)" fill-rule="evenodd" stroke="none"/>
    </g>
    <g text-rendering="geometricPrecision" stroke-miterlimit="1.45" shape-rendering="geometricPrecision" transform="matrix(1,0,0,1,636,-15)" stroke-linecap="butt">
      <path fill="none" d="M76.6302 30.4092 L203.6301 30.4092 L203.6301 45.4092 L218.6301 45.4092 L218.6301 58.4092 L76.6302 58.4092 Z" clip-path="url(#clipPath2)"/>
      <path fill="none" d="M203.6301 30.4092 L203.6301 45.4092 L218.6301 45.4092 Z" clip-path="url(#clipPath2)" fill-rule="evenodd"/>
      <text x="103.719" xml:space="preserve" font-size="20px" y="52.2656" clip-path="url(#clipPath2)" stroke="none">linda-core</text>
    </g>
    <g fill="rgb(255,204,0)" text-rendering="geometricPrecision" shape-rendering="geometricPrecision" transform="matrix(1,0,0,1,636,-15)" stroke="rgb(255,204,0)">
      <path d="M-24.3698 95.4092 L123.6301 95.4092 L123.6301 110.4092 L138.6301 110.4092 L138.6301 123.4092 L-24.3698 123.4092 Z" stroke="none" clip-path="url(#clipPath2)"/>
      <path fill="white" d="M123.6301 95.4092 L123.6301 110.4092 L138.6301 110.4092 Z" clip-path="url(#clipPath2)" fill-rule="evenodd" stroke="none"/>
    </g>
    <g text-rendering="geometricPrecision" stroke-miterlimit="1.45" shape-rendering="geometricPrecision" transform="matrix(1,0,0,1,636,-15)" stroke-linecap="butt">
      <path fill="none" d="M-24.3698 95.4092 L123.6301 95.4092 L123.6301 110.4092 L138.6301 110.4092 L138.6301 123.4092 L-24.3698 123.4092 Z" clip-path="url(#clipPath2)"/>
      <path fill="none" d="M123.6301 95.4092 L123.6301 110.4092 L138.6301 110.4092 Z" clip-path="url(#clipPath2)" fill-rule="evenodd"/>
      <text x="12.1057" xml:space="preserve" font-size="20px" y="117.2656" clip-path="url(#clipPath2)" stroke="none">linda-logic</text>
      <path fill="none" d="M76.6398 95.3967 L119.1804 64.8427" clip-path="url(#clipPath2)"/>
      <path d="M128.1147 58.4258 L114.868 60.5528 L121.8683 70.2994 Z" clip-path="url(#clipPath2)" stroke="none"/>
    </g>
    <g fill="rgb(210,210,210)" text-rendering="geometricPrecision" shape-rendering="geometricPrecision" transform="matrix(1,0,0,1,636,-15) translate(4,4)" stroke="rgb(210,210,210)">
      <rect x="708.9076" width="308.5209" height="168.36" y="387.2292" clip-path="url(#clipPath3)" stroke="none"/>
    </g>
    <g fill="rgb(242,240,216)" text-rendering="geometricPrecision" shape-rendering="geometricPrecision" transform="matrix(1,0,0,1,636,-15)" stroke="rgb(242,240,216)">
      <rect x="708.9076" width="308.5209" height="168.36" y="387.2292" clip-path="url(#clipPath2)" stroke="none"/>
      <rect x="708.9076" y="387.2292" clip-path="url(#clipPath2)" fill="rgb(183,182,158)" width="308.5209" height="22.3765" stroke="none"/>
    </g>
    <g font-size="15px" stroke-linecap="butt" transform="matrix(1,0,0,1,636,-15)" text-rendering="geometricPrecision" font-family="sans-serif" shape-rendering="geometricPrecision" stroke-miterlimit="1.45">
      <text x="965.3749" xml:space="preserve" y="404.3098" clip-path="url(#clipPath2)" stroke="none">Legend</text>
      <rect fill="none" x="708.9076" width="308.5209" height="168.36" y="387.2292" clip-path="url(#clipPath2)"/>
    </g>
    <g fill="rgb(255,204,0)" text-rendering="geometricPrecision" shape-rendering="geometricPrecision" transform="matrix(1,0,0,1,636,-15)" stroke="rgb(255,204,0)">
      <path d="M713.9077 414.8566 L816.8435 414.8566 L816.8435 429.8566 L831.8435 429.8566 L831.8435 442.8566 L713.9077 442.8566 Z" stroke="none" clip-path="url(#clipPath2)"/>
      <path fill="white" d="M816.8435 414.8566 L816.8435 429.8566 L831.8435 429.8566 Z" clip-path="url(#clipPath2)" fill-rule="evenodd" stroke="none"/>
    </g>
    <g text-rendering="geometricPrecision" stroke-miterlimit="1.45" shape-rendering="geometricPrecision" transform="matrix(1,0,0,1,636,-15)" stroke-linecap="butt">
      <path fill="none" d="M713.9077 414.8566 L816.8435 414.8566 L816.8435 429.8566 L831.8435 429.8566 L831.8435 442.8566 L713.9077 442.8566 Z" clip-path="url(#clipPath2)"/>
      <path fill="none" d="M816.8435 414.8566 L816.8435 429.8566 L831.8435 429.8566 Z" clip-path="url(#clipPath2)" fill-rule="evenodd"/>
      <text x="740.0777" xml:space="preserve" font-size="20px" y="436.7131" clip-path="url(#clipPath2)" stroke="none">module</text>
    </g>
    <g fill="rgb(153,204,0)" text-rendering="geometricPrecision" shape-rendering="geometricPrecision" transform="matrix(1,0,0,1,636,-15)" stroke="rgb(153,204,0)">
      <path d="M713.9077 450.6838 L816.8435 450.6838 L816.8435 465.6838 L831.8435 465.6838 L831.8435 478.6838 L713.9077 478.6838 Z" stroke="none" clip-path="url(#clipPath2)"/>
      <path fill="white" d="M816.8435 450.6838 L816.8435 465.6838 L831.8435 465.6838 Z" clip-path="url(#clipPath2)" fill-rule="evenodd" stroke="none"/>
    </g>
    <g text-rendering="geometricPrecision" stroke-miterlimit="1.45" shape-rendering="geometricPrecision" transform="matrix(1,0,0,1,636,-15)" stroke-linecap="butt">
      <path fill="none" d="M713.9077 450.6838 L816.8435 450.6838 L816.8435 465.6838 L831.8435 465.6838 L831.8435 478.6838 L713.9077 478.6838 Z" clip-path="url(#clipPath2)"/>
      <path fill="none" d="M816.8435 450.6838 L816.8435 465.6838 L831.8435 465.6838 Z" clip-path="url(#clipPath2)" fill-rule="evenodd"/>
      <text x="755.6441" xml:space="preserve" font-size="20px" y="472.5403" clip-path="url(#clipPath2)" stroke="none">root</text>
    </g>
    <g fill="yellow" text-rendering="geometricPrecision" shape-rendering="geometricPrecision" transform="matrix(1,0,0,1,636,-15)" stroke="yellow">
      <path d="M715.0356 486.511 L816.8435 486.511 L816.8435 501.511 L831.8435 501.511 L831.8435 514.511 L715.0356 514.511 Z" stroke="none" clip-path="url(#clipPath2)"/>
      <path fill="white" d="M816.8435 486.511 L816.8435 501.511 L831.8435 501.511 Z" clip-path="url(#clipPath2)" fill-rule="evenodd" stroke="none"/>
    </g>
    <g text-rendering="geometricPrecision" stroke-miterlimit="1.45" shape-rendering="geometricPrecision" transform="matrix(1,0,0,1,636,-15)" stroke-linecap="butt">
      <path fill="none" d="M715.0356 486.511 L816.8435 486.511 L816.8435 501.511 L831.8435 501.511 L831.8435 514.511 L715.0356 514.511 Z" clip-path="url(#clipPath2)"/>
      <path fill="none" d="M816.8435 486.511 L816.8435 501.511 L831.8435 501.511 Z" clip-path="url(#clipPath2)" fill-rule="evenodd"/>
      <text x="734.5187" xml:space="preserve" font-size="20px" y="508.3675" clip-path="url(#clipPath2)" stroke="none">runnable</text>
    </g>
    <g stroke-linecap="round" transform="matrix(1,0,0,1,636,-15)" stroke-dashoffset="2" text-rendering="geometricPrecision" shape-rendering="geometricPrecision" stroke-dasharray="0,8" stroke-width="2" stroke-miterlimit="1.45">
      <path fill="none" d="M851.9277 414.8566 L989.4276 414.8566 L989.4276 429.8566 L1004.4276 429.8566 L1004.4276 442.8566 L851.9277 442.8566 Z" clip-path="url(#clipPath2)"/>
      <path fill="none" d="M989.4276 414.8566 L989.4276 429.8566 L1004.4276 429.8566 Z" clip-path="url(#clipPath2)" fill-rule="evenodd"/>
    </g>
    <g text-rendering="geometricPrecision" stroke-miterlimit="1.45" font-size="20px" shape-rendering="geometricPrecision" transform="matrix(1,0,0,1,636,-15)" stroke-linecap="butt">
      <text x="901.5028" xml:space="preserve" y="436.7131" clip-path="url(#clipPath2)" stroke="none">virtual</text>
    </g>
    <g fill="rgb(0,204,255)" text-rendering="geometricPrecision" shape-rendering="geometricPrecision" transform="matrix(1,0,0,1,636,-15)" stroke="rgb(0,204,255)">
      <path d="M715.0356 522.3383 L816.8435 522.3383 L816.8435 537.3383 L831.8435 537.3383 L831.8435 550.3383 L715.0356 550.3383 Z" stroke="none" clip-path="url(#clipPath2)"/>
      <path fill="white" d="M816.8435 522.3383 L816.8435 537.3383 L831.8435 537.3383 Z" clip-path="url(#clipPath2)" fill-rule="evenodd" stroke="none"/>
    </g>
    <g text-rendering="geometricPrecision" stroke-miterlimit="1.45" shape-rendering="geometricPrecision" transform="matrix(1,0,0,1,636,-15)" stroke-linecap="butt">
      <path fill="none" d="M715.0356 522.3383 L816.8435 522.3383 L816.8435 537.3383 L831.8435 537.3383 L831.8435 550.3383 L715.0356 550.3383 Z" clip-path="url(#clipPath2)"/>
      <path fill="none" d="M816.8435 522.3383 L816.8435 537.3383 L831.8435 537.3383 Z" clip-path="url(#clipPath2)" fill-rule="evenodd"/>
      <text x="737.8634" xml:space="preserve" font-size="20px" y="544.1947" clip-path="url(#clipPath2)" stroke="none">external</text>
    </g>
    <g fill="rgb(255,204,0)" text-rendering="geometricPrecision" shape-rendering="geometricPrecision" transform="matrix(1,0,0,1,636,-15)" stroke="rgb(255,204,0)">
      <path d="M168.6301 95.4092 L295.6299 95.4092 L295.6299 110.4092 L310.6299 110.4092 L310.6299 123.4092 L168.6301 123.4092 Z" stroke="none" clip-path="url(#clipPath2)"/>
      <path fill="white" d="M295.6299 95.4092 L295.6299 110.4092 L310.6299 110.4092 Z" clip-path="url(#clipPath2)" fill-rule="evenodd" stroke="none"/>
    </g>
    <g text-rendering="geometricPrecision" stroke-miterlimit="1.45" shape-rendering="geometricPrecision" transform="matrix(1,0,0,1,636,-15)" stroke-linecap="butt">
      <path fill="none" d="M168.6301 95.4092 L295.6299 95.4092 L295.6299 110.4092 L310.6299 110.4092 L310.6299 123.4092 L168.6301 123.4092 Z" clip-path="url(#clipPath2)"/>
      <path fill="none" d="M295.6299 95.4092 L295.6299 110.4092 L310.6299 110.4092 Z" clip-path="url(#clipPath2)" fill-rule="evenodd"/>
      <text x="199.0538" xml:space="preserve" font-size="20px" y="117.2656" clip-path="url(#clipPath2)" stroke="none">linda-text</text>
    </g>
    <g stroke-linecap="round" transform="matrix(1,0,0,1,636,-15)" stroke-dashoffset="2" text-rendering="geometricPrecision" shape-rendering="geometricPrecision" stroke-dasharray="0,8" stroke-width="2" stroke-miterlimit="1.45">
      <path fill="none" d="M862.6777 95.4092 L978.6776 95.4092 L978.6776 110.4092 L993.6776 110.4092 L993.6776 123.4092 L862.6777 123.4092 Z" clip-path="url(#clipPath2)"/>
      <path fill="none" d="M978.6776 95.4092 L978.6776 110.4092 L993.6776 110.4092 Z" clip-path="url(#clipPath2)" fill-rule="evenodd"/>
    </g>
    <g text-rendering="geometricPrecision" stroke-miterlimit="1.45" font-size="20px" shape-rendering="geometricPrecision" transform="matrix(1,0,0,1,636,-15)" stroke-linecap="butt">
      <text x="899.828" xml:space="preserve" y="117.2656" clip-path="url(#clipPath2)" stroke="none">linda-*</text>
    </g>
    <g fill="rgb(153,204,0)" text-rendering="geometricPrecision" shape-rendering="geometricPrecision" transform="matrix(1,0,0,1,636,-15)" stroke="rgb(153,204,0)">
      <path d="M66.1302 160.4092 L214.1301 160.4092 L214.1301 175.4092 L229.1301 175.4092 L229.1301 188.4092 L66.1302 188.4092 Z" stroke="none" clip-path="url(#clipPath2)"/>
      <path fill="white" d="M214.1301 160.4092 L214.1301 175.4092 L229.1301 175.4092 Z" clip-path="url(#clipPath2)" fill-rule="evenodd" stroke="none"/>
    </g>
    <g text-rendering="geometricPrecision" stroke-miterlimit="1.45" shape-rendering="geometricPrecision" transform="matrix(1,0,0,1,636,-15)" stroke-linecap="butt">
      <path fill="none" d="M66.1302 160.4092 L214.1301 160.4092 L214.1301 175.4092 L229.1301 175.4092 L229.1301 188.4092 L66.1302 188.4092 Z" clip-path="url(#clipPath2)"/>
      <path fill="none" d="M214.1301 160.4092 L214.1301 175.4092 L229.1301 175.4092 Z" clip-path="url(#clipPath2)" fill-rule="evenodd"/>
      <text x="92.5911" xml:space="preserve" font-size="20px" y="182.2656" clip-path="url(#clipPath2)" stroke="none">presentation</text>
    </g>
    <g fill="rgb(255,204,0)" text-rendering="geometricPrecision" shape-rendering="geometricPrecision" transform="matrix(1,0,0,1,636,-15)" stroke="rgb(255,204,0)">
      <path d="M-264.8694 176.9092 L4.1303 176.9092 L4.1303 191.9092 L19.1303 191.9092 L19.1303 204.9092 L-264.8694 204.9092 Z" stroke="none" clip-path="url(#clipPath2)"/>
      <path fill="white" d="M4.1303 176.9092 L4.1303 191.9092 L19.1303 191.9092 Z" clip-path="url(#clipPath2)" fill-rule="evenodd" stroke="none"/>
    </g>
    <g text-rendering="geometricPrecision" stroke-miterlimit="1.45" shape-rendering="geometricPrecision" transform="matrix(1,0,0,1,636,-15)" stroke-linecap="butt">
      <path fill="none" d="M-264.8694 176.9092 L4.1303 176.9092 L4.1303 191.9092 L19.1303 191.9092 L19.1303 204.9092 L-264.8694 204.9092 Z" clip-path="url(#clipPath2)"/>
      <path fill="none" d="M4.1303 176.9092 L4.1303 191.9092 L19.1303 191.9092 Z" clip-path="url(#clipPath2)" fill-rule="evenodd"/>
      <text x="-226.2631" xml:space="preserve" font-size="20px" y="198.7656" clip-path="url(#clipPath2)" stroke="none">linda-logic-presentation</text>
    </g>
    <g fill="rgb(255,204,0)" text-rendering="geometricPrecision" shape-rendering="geometricPrecision" transform="matrix(1,0,0,1,636,-15)" stroke="rgb(255,204,0)">
      <path d="M276.1301 176.9092 L535.1297 176.9092 L535.1297 191.9092 L550.1297 191.9092 L550.1297 204.9092 L276.1301 204.9092 Z" stroke="none" clip-path="url(#clipPath2)"/>
      <path fill="white" d="M535.1297 176.9092 L535.1297 191.9092 L550.1297 191.9092 Z" clip-path="url(#clipPath2)" fill-rule="evenodd" stroke="none"/>
    </g>
    <g text-rendering="geometricPrecision" stroke-miterlimit="1.45" shape-rendering="geometricPrecision" transform="matrix(1,0,0,1,636,-15)" stroke-linecap="butt">
      <path fill="none" d="M276.1301 176.9092 L535.1297 176.9092 L535.1297 191.9092 L550.1297 191.9092 L550.1297 204.9092 L276.1301 204.9092 Z" clip-path="url(#clipPath2)"/>
      <path fill="none" d="M535.1297 176.9092 L535.1297 191.9092 L550.1297 191.9092 Z" clip-path="url(#clipPath2)" fill-rule="evenodd"/>
      <text x="314.1846" xml:space="preserve" font-size="20px" y="198.7656" clip-path="url(#clipPath2)" stroke="none">linda-text-presentation</text>
    </g>
    <g stroke-linecap="round" transform="matrix(1,0,0,1,636,-15)" stroke-dashoffset="2" text-rendering="geometricPrecision" shape-rendering="geometricPrecision" stroke-dasharray="0,8" stroke-width="2" stroke-miterlimit="1.45">
      <path fill="none" d="M1055.1774 176.9092 L1280.1771 176.9092 L1280.1771 191.9092 L1295.1771 191.9092 L1295.1771 204.9092 L1055.1774 204.9092 Z" clip-path="url(#clipPath2)"/>
      <path fill="none" d="M1280.1771 176.9092 L1280.1771 191.9092 L1295.1771 191.9092 Z" clip-path="url(#clipPath2)" fill-rule="evenodd"/>
    </g>
    <g text-rendering="geometricPrecision" stroke-miterlimit="1.45" font-size="20px" shape-rendering="geometricPrecision" transform="matrix(1,0,0,1,636,-15)" stroke-linecap="butt">
      <text x="1088.4585" xml:space="preserve" y="198.7656" clip-path="url(#clipPath2)" stroke="none">linda-*-presentation</text>
    </g>
    <g fill="rgb(255,204,0)" text-rendering="geometricPrecision" shape-rendering="geometricPrecision" transform="matrix(1,0,0,1,636,-15)" stroke="rgb(255,204,0)">
      <path d="M-234.3694 250.4092 L-26.3697 250.4092 L-26.3697 265.4092 L-11.3697 265.4092 L-11.3697 278.4092 L-234.3694 278.4092 Z" stroke="none" clip-path="url(#clipPath2)"/>
      <path fill="white" d="M-26.3697 250.4092 L-26.3697 265.4092 L-11.3697 265.4092 Z" clip-path="url(#clipPath2)" fill-rule="evenodd" stroke="none"/>
    </g>
    <g text-rendering="geometricPrecision" stroke-miterlimit="1.45" shape-rendering="geometricPrecision" transform="matrix(1,0,0,1,636,-15)" stroke-linecap="butt">
      <path fill="none" d="M-234.3694 250.4092 L-26.3697 250.4092 L-26.3697 265.4092 L-11.3697 265.4092 L-11.3697 278.4092 L-234.3694 278.4092 Z" clip-path="url(#clipPath2)"/>
      <path fill="none" d="M-26.3697 250.4092 L-26.3697 265.4092 L-11.3697 265.4092 Z" clip-path="url(#clipPath2)" fill-rule="evenodd"/>
      <text x="-194.5688" xml:space="preserve" font-size="20px" y="272.2657" clip-path="url(#clipPath2)" stroke="none">linda-logic-client</text>
    </g>
    <g fill="rgb(255,204,0)" text-rendering="geometricPrecision" shape-rendering="geometricPrecision" transform="matrix(1,0,0,1,636,-15)" stroke="rgb(255,204,0)">
      <path d="M301.63 250.4092 L509.6298 250.4092 L509.6298 265.4092 L524.6298 265.4092 L524.6298 278.4092 L301.63 278.4092 Z" stroke="none" clip-path="url(#clipPath2)"/>
      <path fill="white" d="M509.6298 250.4092 L509.6298 265.4092 L524.6298 265.4092 Z" clip-path="url(#clipPath2)" fill-rule="evenodd" stroke="none"/>
    </g>
    <g text-rendering="geometricPrecision" stroke-miterlimit="1.45" shape-rendering="geometricPrecision" transform="matrix(1,0,0,1,636,-15)" stroke-linecap="butt">
      <path fill="none" d="M301.63 250.4092 L509.6298 250.4092 L509.6298 265.4092 L524.6298 265.4092 L524.6298 278.4092 L301.63 278.4092 Z" clip-path="url(#clipPath2)"/>
      <path fill="none" d="M509.6298 250.4092 L509.6298 265.4092 L524.6298 265.4092 Z" clip-path="url(#clipPath2)" fill-rule="evenodd"/>
      <text x="345.8789" xml:space="preserve" font-size="20px" y="272.2657" clip-path="url(#clipPath2)" stroke="none">linda-text-client</text>
    </g>
    <g stroke-linecap="round" transform="matrix(1,0,0,1,636,-15)" stroke-dashoffset="2" text-rendering="geometricPrecision" shape-rendering="geometricPrecision" stroke-dasharray="0,8" stroke-width="2" stroke-miterlimit="1.45">
      <path fill="none" d="M1075.5493 250.4092 L1259.8052 250.4092 L1259.8052 265.4092 L1274.8052 265.4092 L1274.8052 278.4092 L1075.5493 278.4092 Z" clip-path="url(#clipPath2)"/>
      <path fill="none" d="M1259.8052 250.4092 L1259.8052 265.4092 L1274.8052 265.4092 Z" clip-path="url(#clipPath2)" fill-rule="evenodd"/>
    </g>
    <g text-rendering="geometricPrecision" stroke-miterlimit="1.45" font-size="20px" shape-rendering="geometricPrecision" transform="matrix(1,0,0,1,636,-15)" stroke-linecap="butt">
      <text x="1120.1528" xml:space="preserve" y="272.2657" clip-path="url(#clipPath2)" stroke="none">linda-*-client</text>
    </g>
    <g fill="rgb(0,204,255)" text-rendering="geometricPrecision" shape-rendering="geometricPrecision" transform="matrix(1,0,0,1,636,-15)" stroke="rgb(0,204,255)">
      <path d="M91.1302 225.4092 L189.1301 225.4092 L189.1301 240.4092 L204.1301 240.4092 L204.1301 253.4092 L91.1302 253.4092 Z" stroke="none" clip-path="url(#clipPath2)"/>
      <path fill="white" d="M189.1301 225.4092 L189.1301 240.4092 L204.1301 240.4092 Z" clip-path="url(#clipPath2)" fill-rule="evenodd" stroke="none"/>
    </g>
    <g text-rendering="geometricPrecision" stroke-miterlimit="1.45" shape-rendering="geometricPrecision" transform="matrix(1,0,0,1,636,-15)" stroke-linecap="butt">
      <path fill="none" d="M91.1302 225.4092 L189.1301 225.4092 L189.1301 240.4092 L204.1301 240.4092 L204.1301 253.4092 L91.1302 253.4092 Z" clip-path="url(#clipPath2)"/>
      <path fill="none" d="M189.1301 225.4092 L189.1301 240.4092 L204.1301 240.4092 Z" clip-path="url(#clipPath2)" fill-rule="evenodd"/>
      <text x="113.7239" xml:space="preserve" font-size="20px" y="247.2656" clip-path="url(#clipPath2)" stroke="none">jackson</text>
    </g>
    <g fill="rgb(0,204,255)" text-rendering="geometricPrecision" shape-rendering="geometricPrecision" transform="matrix(1,0,0,1,636,-15)" stroke="rgb(0,204,255)">
      <path d="M-204.8697 95.4092 L-122.8698 95.4092 L-122.8698 110.4092 L-107.8698 110.4092 L-107.8698 123.4092 L-204.8697 123.4092 Z" stroke="none" clip-path="url(#clipPath2)"/>
      <path fill="white" d="M-122.8698 95.4092 L-122.8698 110.4092 L-107.8698 110.4092 Z" clip-path="url(#clipPath2)" fill-rule="evenodd" stroke="none"/>
    </g>
    <g text-rendering="geometricPrecision" stroke-miterlimit="1.45" shape-rendering="geometricPrecision" transform="matrix(1,0,0,1,636,-15)" stroke-linecap="butt">
      <path fill="none" d="M-204.8697 95.4092 L-122.8698 95.4092 L-122.8698 110.4092 L-107.8698 110.4092 L-107.8698 123.4092 L-204.8697 123.4092 Z" clip-path="url(#clipPath2)"/>
      <path fill="none" d="M-122.8698 95.4092 L-122.8698 110.4092 L-107.8698 110.4092 Z" clip-path="url(#clipPath2)" fill-rule="evenodd"/>
      <text x="-178.6012" xml:space="preserve" font-size="20px" y="117.2656" clip-path="url(#clipPath2)" stroke="none">2p-kt</text>
    </g>
    <g fill="yellow" text-rendering="geometricPrecision" shape-rendering="geometricPrecision" transform="matrix(1,0,0,1,636,-15)" stroke="yellow">
      <path d="M-78.8697 366.4092 L76.1301 366.4092 L76.1301 381.4092 L91.1301 381.4092 L91.1301 394.4092 L-78.8697 394.4092 Z" stroke="none" clip-path="url(#clipPath2)"/>
      <path fill="white" d="M76.1301 366.4092 L76.1301 381.4092 L91.1301 381.4092 Z" clip-path="url(#clipPath2)" fill-rule="evenodd" stroke="none"/>
    </g>
    <g text-rendering="geometricPrecision" stroke-miterlimit="1.45" shape-rendering="geometricPrecision" transform="matrix(1,0,0,1,636,-15)" stroke-linecap="butt">
      <path fill="none" d="M-78.8697 366.4092 L76.1301 366.4092 L76.1301 381.4092 L91.1301 381.4092 L91.1301 394.4092 L-78.8697 394.4092 Z" clip-path="url(#clipPath2)"/>
      <path fill="none" d="M76.1301 366.4092 L76.1301 381.4092 L91.1301 381.4092 Z" clip-path="url(#clipPath2)" fill-rule="evenodd"/>
      <text x="-54.9978" xml:space="preserve" font-size="20px" y="388.2657" clip-path="url(#clipPath2)" stroke="none">tusow-service</text>
    </g>
    <g fill="yellow" text-rendering="geometricPrecision" shape-rendering="geometricPrecision" transform="matrix(1,0,0,1,636,-15)" stroke="yellow">
      <path d="M218.1301 366.4092 L328.1299 366.4092 L328.1299 381.4092 L343.1299 381.4092 L343.1299 394.4092 L218.1301 394.4092 Z" stroke="none" clip-path="url(#clipPath2)"/>
      <path fill="white" d="M328.1299 366.4092 L328.1299 381.4092 L343.1299 381.4092 Z" clip-path="url(#clipPath2)" fill-rule="evenodd" stroke="none"/>
    </g>
    <g text-rendering="geometricPrecision" stroke-miterlimit="1.45" shape-rendering="geometricPrecision" transform="matrix(1,0,0,1,636,-15)" stroke-linecap="butt">
      <path fill="none" d="M218.1301 366.4092 L328.1299 366.4092 L328.1299 381.4092 L343.1299 381.4092 L343.1299 394.4092 L218.1301 394.4092 Z" clip-path="url(#clipPath2)"/>
      <path fill="none" d="M328.1299 366.4092 L328.1299 381.4092 L343.1299 381.4092 Z" clip-path="url(#clipPath2)" fill-rule="evenodd"/>
      <text x="241.7335" xml:space="preserve" font-size="20px" y="388.2657" clip-path="url(#clipPath2)" stroke="none">tusow-cli</text>
    </g>
    <g fill="rgb(0,204,255)" text-rendering="geometricPrecision" shape-rendering="geometricPrecision" transform="matrix(1,0,0,1,636,-15)" stroke="rgb(0,204,255)">
      <path d="M91.1302 283.4092 L189.1301 283.4092 L189.1301 298.4092 L204.1301 298.4092 L204.1301 311.4092 L91.1302 311.4092 Z" stroke="none" clip-path="url(#clipPath2)"/>
      <path fill="white" d="M189.1301 283.4092 L189.1301 298.4092 L204.1301 298.4092 Z" clip-path="url(#clipPath2)" fill-rule="evenodd" stroke="none"/>
    </g>
    <g text-rendering="geometricPrecision" stroke-miterlimit="1.45" shape-rendering="geometricPrecision" transform="matrix(1,0,0,1,636,-15)" stroke-linecap="butt">
      <path fill="none" d="M91.1302 283.4092 L189.1301 283.4092 L189.1301 298.4092 L204.1301 298.4092 L204.1301 311.4092 L91.1302 311.4092 Z" clip-path="url(#clipPath2)"/>
      <path fill="none" d="M189.1301 283.4092 L189.1301 298.4092 L204.1301 298.4092 Z" clip-path="url(#clipPath2)" fill-rule="evenodd"/>
      <text x="123.1819" xml:space="preserve" font-size="20px" y="305.2657" clip-path="url(#clipPath2)" stroke="none">vert.x</text>
    </g>
    <g fill="rgb(255,204,0)" text-rendering="geometricPrecision" shape-rendering="geometricPrecision" transform="matrix(1,0,0,1,636,-15)" stroke="rgb(255,204,0)">
      <path d="M71.3802 457.4092 L208.8801 457.4092 L208.8801 472.4092 L223.8801 472.4092 L223.8801 485.4092 L71.3802 485.4092 Z" stroke="none" clip-path="url(#clipPath2)"/>
      <path fill="white" d="M208.8801 457.4092 L208.8801 472.4092 L223.8801 472.4092 Z" clip-path="url(#clipPath2)" fill-rule="evenodd" stroke="none"/>
    </g>
    <g text-rendering="geometricPrecision" stroke-miterlimit="1.45" shape-rendering="geometricPrecision" transform="matrix(1,0,0,1,636,-15)" stroke-linecap="butt">
      <path fill="none" d="M71.3802 457.4092 L208.8801 457.4092 L208.8801 472.4092 L223.8801 472.4092 L223.8801 485.4092 L71.3802 485.4092 Z" clip-path="url(#clipPath2)"/>
      <path fill="none" d="M208.8801 457.4092 L208.8801 472.4092 L223.8801 472.4092 Z" clip-path="url(#clipPath2)" fill-rule="evenodd"/>
      <text x="105.3938" xml:space="preserve" font-size="20px" y="479.2657" clip-path="url(#clipPath2)" stroke="none">tusow-full</text>
    </g>
    <g fill="yellow" text-rendering="geometricPrecision" shape-rendering="geometricPrecision" transform="matrix(1,0,0,1,636,-15)" stroke="yellow">
      <path d="M-303.2923 366.4092 L-176.2925 366.4092 L-176.2925 381.4092 L-161.2925 381.4092 L-161.2925 394.4092 L-303.2923 394.4092 Z" stroke="none" clip-path="url(#clipPath2)"/>
      <path fill="white" d="M-176.2925 366.4092 L-176.2925 381.4092 L-161.2925 381.4092 Z" clip-path="url(#clipPath2)" fill-rule="evenodd" stroke="none"/>
    </g>
    <g text-rendering="geometricPrecision" stroke-miterlimit="1.45" shape-rendering="geometricPrecision" transform="matrix(1,0,0,1,636,-15)" stroke-linecap="butt">
      <path fill="none" d="M-303.2923 366.4092 L-176.2925 366.4092 L-176.2925 381.4092 L-161.2925 381.4092 L-161.2925 394.4092 L-303.2923 394.4092 Z" clip-path="url(#clipPath2)"/>
      <path fill="none" d="M-176.2925 366.4092 L-176.2925 381.4092 L-161.2925 381.4092 Z" clip-path="url(#clipPath2)" fill-rule="evenodd"/>
      <text x="-281.1986" font-size="20px" y="388.2657" clip-path="url(#clipPath2)" font-family="sans-serif" stroke="none" xml:space="preserve">tusow-grpc</text>
    </g>
    <g fill="rgb(255,204,0)" text-rendering="geometricPrecision" shape-rendering="geometricPrecision" transform="matrix(1,0,0,1,636,-15)" stroke="rgb(255,204,0)">
      <path d="M-533.56 250.4092 L-293.5165 250.4092 L-293.5165 265.4092 L-278.5165 265.4092 L-278.5165 278.4092 L-533.56 278.4092 Z" stroke="none" clip-path="url(#clipPath2)"/>
      <path fill="white" d="M-293.5165 250.4092 L-293.5165 265.4092 L-278.5165 265.4092 Z" clip-path="url(#clipPath2)" fill-rule="evenodd" stroke="none"/>
    </g>
    <g text-rendering="geometricPrecision" stroke-miterlimit="1.45" shape-rendering="geometricPrecision" transform="matrix(1,0,0,1,636,-15)" stroke-linecap="butt">
      <path fill="none" d="M-533.56 250.4092 L-293.5165 250.4092 L-293.5165 265.4092 L-278.5165 265.4092 L-278.5165 278.4092 L-533.56 278.4092 Z" clip-path="url(#clipPath2)"/>
      <path fill="none" d="M-293.5165 250.4092 L-293.5165 265.4092 L-278.5165 265.4092 Z" clip-path="url(#clipPath2)" fill-rule="evenodd"/>
      <text x="-500.5207" font-size="20px" y="272.2657" clip-path="url(#clipPath2)" font-family="sans-serif" stroke="none" xml:space="preserve">linda-logic-grpc-client</text>
    </g>
    <g fill="rgb(255,204,0)" text-rendering="geometricPrecision" shape-rendering="geometricPrecision" transform="matrix(1,0,0,1,636,-15)" stroke="rgb(255,204,0)">
      <path d="M-620.1669 176.9092 L-309.8694 176.9092 L-309.8694 191.9092 L-294.8694 191.9092 L-294.8694 204.9092 L-620.1669 204.9092 Z" stroke="none" clip-path="url(#clipPath2)"/>
      <path fill="white" d="M-309.8694 176.9092 L-309.8694 191.9092 L-294.8694 191.9092 Z" clip-path="url(#clipPath2)" fill-rule="evenodd" stroke="none"/>
    </g>
    <g text-rendering="geometricPrecision" stroke-miterlimit="1.45" shape-rendering="geometricPrecision" transform="matrix(1,0,0,1,636,-15)" stroke-linecap="butt">
      <path fill="none" d="M-620.1669 176.9092 L-309.8694 176.9092 L-309.8694 191.9092 L-294.8694 191.9092 L-294.8694 204.9092 L-620.1669 204.9092 Z" clip-path="url(#clipPath2)"/>
      <path fill="none" d="M-309.8694 176.9092 L-309.8694 191.9092 L-294.8694 191.9092 Z" clip-path="url(#clipPath2)" fill-rule="evenodd"/>
      <text x="-583.6949" font-size="20px" y="198.7656" clip-path="url(#clipPath2)" font-family="sans-serif" stroke="none" xml:space="preserve">linda-logic-grpc-presentation</text>
    </g>
    <g fill="rgb(255,204,0)" text-rendering="geometricPrecision" shape-rendering="geometricPrecision" transform="matrix(1,0,0,1,636,-15)" stroke="rgb(255,204,0)">
      <path d="M580.1297 176.9092 L873.6506 176.9092 L873.6506 191.9092 L888.6506 191.9092 L888.6506 204.9092 L580.1297 204.9092 Z" stroke="none" clip-path="url(#clipPath2)"/>
      <path fill="white" d="M873.6506 176.9092 L873.6506 191.9092 L888.6506 191.9092 Z" clip-path="url(#clipPath2)" fill-rule="evenodd" stroke="none"/>
    </g>
    <g text-rendering="geometricPrecision" stroke-miterlimit="1.45" shape-rendering="geometricPrecision" transform="matrix(1,0,0,1,636,-15)" stroke-linecap="butt">
      <path fill="none" d="M580.1297 176.9092 L873.6506 176.9092 L873.6506 191.9092 L888.6506 191.9092 L888.6506 204.9092 L580.1297 204.9092 Z" clip-path="url(#clipPath2)"/>
      <path fill="none" d="M873.6506 176.9092 L873.6506 191.9092 L888.6506 191.9092 Z" clip-path="url(#clipPath2)" fill-rule="evenodd"/>
      <text x="612.6617" font-size="20px" y="198.7656" clip-path="url(#clipPath2)" font-family="sans-serif" stroke="none" xml:space="preserve">linda-text-grpc-presentation</text>
    </g>
    <g fill="rgb(255,204,0)" text-rendering="geometricPrecision" shape-rendering="geometricPrecision" transform="matrix(1,0,0,1,636,-15)" stroke="rgb(255,204,0)">
      <path d="M614.3903 250.4092 L839.39 250.4092 L839.39 265.4092 L854.39 265.4092 L854.39 278.4092 L614.3903 278.4092 Z" stroke="none" clip-path="url(#clipPath2)"/>
      <path fill="white" d="M839.39 250.4092 L839.39 265.4092 L854.39 265.4092 Z" clip-path="url(#clipPath2)" fill-rule="evenodd" stroke="none"/>
    </g>
    <g text-rendering="geometricPrecision" stroke-miterlimit="1.45" shape-rendering="geometricPrecision" transform="matrix(1,0,0,1,636,-15)" stroke-linecap="butt">
      <path fill="none" d="M614.3903 250.4092 L839.39 250.4092 L839.39 265.4092 L854.39 265.4092 L854.39 278.4092 L614.3903 278.4092 Z" clip-path="url(#clipPath2)"/>
      <path fill="none" d="M839.39 250.4092 L839.39 265.4092 L854.39 265.4092 Z" clip-path="url(#clipPath2)" fill-rule="evenodd"/>
      <text x="644.356" font-size="20px" y="272.2657" clip-path="url(#clipPath2)" font-family="sans-serif" stroke="none" xml:space="preserve">linda-text-grpc-client</text>
      <path fill="none" d="M847.8435 471.511 L998.4286 471.511" clip-path="url(#clipPath2)"/>
      <path d="M1009.4286 471.511 L997.4286 465.511 L997.4286 477.511 Z" clip-path="url(#clipPath2)" stroke="none"/>
      <text x="879.4862" xml:space="preserve" y="463.6313" clip-path="url(#clipPath2)" font-family="sans-serif" stroke="none">depends on</text>
      <path fill="none" stroke-dasharray="6,2" d="M847.8435 501.511 L1004.4286 501.511" clip-path="url(#clipPath2)"/>
      <path stroke-dasharray="6,2" d="M1008.4286 501.511 L996.4286 495.511 L1008.4286 501.511 L996.4286 507.511 Z" clip-path="url(#clipPath2)" stroke="none"/>
      <path fill="none" stroke-miterlimit="10" d="M1008.4286 501.511 L996.4286 495.511 L1008.4286 501.511 L996.4286 507.511 Z" clip-path="url(#clipPath2)" stroke-linecap="square"/>
      <text x="915.9622" xml:space="preserve" y="493.6313" clip-path="url(#clipPath2)" font-family="sans-serif" stroke="none">uses</text>
    </g>
    <g stroke-linecap="round" transform="matrix(1,0,0,1,636,-15)" stroke-dashoffset="2" text-rendering="geometricPrecision" shape-rendering="geometricPrecision" stroke-dasharray="0,8" stroke-width="2" stroke-miterlimit="1.45">
      <path fill="none" d="M847.8435 534.011 L997.0536 534.011" clip-path="url(#clipPath2)"/>
      <path d="M1009.4286 534.011 L995.9286 527.261 L995.9286 540.761 Z" clip-path="url(#clipPath2)" stroke="none"/>
    </g>
    <g text-rendering="geometricPrecision" stroke-miterlimit="1.45" shape-rendering="geometricPrecision" font-family="sans-serif" transform="matrix(1,0,0,1,636,-15)" stroke-linecap="butt">
      <text x="883.6097" xml:space="preserve" y="526.1313" clip-path="url(#clipPath2)" stroke="none">virtually depends</text>
      <path fill="none" d="M219.797 95.3967 L176.4529 64.7731" clip-path="url(#clipPath2)"/>
      <path d="M167.469 58.4258 L173.8075 70.2505 L180.7319 60.4499 Z" clip-path="url(#clipPath2)" stroke="none"/>
    </g>
    <g stroke-linecap="round" transform="matrix(1,0,0,1,636,-15)" stroke-dashoffset="2" text-rendering="geometricPrecision" shape-rendering="geometricPrecision" stroke-dasharray="0,8" stroke-width="2" stroke-miterlimit="1.45">
      <path fill="none" d="M862.6714 103.9542 L230.9691 51.3492" clip-path="url(#clipPath2)"/>
      <path d="M218.6368 50.3223 L231.53 58.1693 L232.6504 44.7159 Z" clip-path="url(#clipPath2)" stroke="none"/>
    </g>
    <g text-rendering="geometricPrecision" stroke-miterlimit="1.45" shape-rendering="geometricPrecision" transform="matrix(1,0,0,1,636,-15)" stroke-linecap="butt">
      <path fill="none" d="M-91.9761 176.9213 L16.2034 127.9399" clip-path="url(#clipPath2)"/>
      <path d="M26.2241 123.4028 L12.8176 122.8866 L17.7673 133.8182 Z" clip-path="url(#clipPath2)" stroke="none"/>
      <path fill="none" d="M19.1494 182.2463 L55.1268 180.0517" clip-path="url(#clipPath2)"/>
      <path d="M66.1064 179.382 L53.7633 174.1238 L54.4939 186.1015 Z" clip-path="url(#clipPath2)" stroke="none"/>
      <path fill="none" d="M383.352 176.9213 L279.3763 128.0797" clip-path="url(#clipPath2)"/>
      <path d="M269.42 123.4028 L277.7304 133.9355 L282.8324 123.0741 Z" clip-path="url(#clipPath2)" stroke="none"/>
      <path fill="none" d="M276.1344 182.3953 L240.0849 180.155" clip-path="url(#clipPath2)"/>
      <path d="M229.1061 179.4727 L240.7108 186.2055 L241.4552 174.2286 Z" clip-path="url(#clipPath2)" stroke="none"/>
    </g>
    <g stroke-linecap="round" transform="matrix(1,0,0,1,636,-15)" stroke-dashoffset="2" text-rendering="geometricPrecision" shape-rendering="geometricPrecision" stroke-dasharray="0,8" stroke-width="2" stroke-miterlimit="1.45">
      <path fill="none" d="M1132.7544 176.9113 L982.3581 127.2866" clip-path="url(#clipPath2)"/>
      <path d="M970.6063 123.409 L981.3114 134.0492 L985.5415 121.229 Z" clip-path="url(#clipPath2)" stroke="none"/>
      <path fill="none" d="M1111.1323 176.9148 L1047.1222 164.66 L983.0532 154.1268 L918.9563 145.3213 L854.8317 138.2434 L790.6794 132.8931 L726.4993 129.2704 L662.2914 127.3753 L598.0559 127.2079 L533.7926 128.7681 L469.5015 132.0559 L405.1827 137.0713 L340.8362 143.8143 L276.4619 152.285 L237.3957 158.4713" clip-path="url(#clipPath2)"/>
      <path d="M225.173 160.4068 L239.5626 164.9622 L237.4512 151.6284 Z" clip-path="url(#clipPath2)" stroke="none"/>
    </g>
    <g text-rendering="geometricPrecision" stroke-miterlimit="1.45" shape-rendering="geometricPrecision" transform="matrix(1,0,0,1,636,-15)" stroke-linecap="butt">
      <path fill="none" d="M-122.8696 250.3767 L-122.8696 215.934" clip-path="url(#clipPath2)"/>
      <path d="M-122.8696 204.934 L-128.8696 216.934 L-116.8696 216.934 Z" clip-path="url(#clipPath2)" stroke="none"/>
      <path fill="none" d="M413.1299 250.3767 L413.1299 215.934" clip-path="url(#clipPath2)"/>
      <path d="M413.1299 204.934 L407.1299 216.934 L419.1299 216.934 Z" clip-path="url(#clipPath2)" stroke="none"/>
    </g>
    <g stroke-linecap="round" transform="matrix(1,0,0,1,636,-15)" stroke-dashoffset="2" text-rendering="geometricPrecision" shape-rendering="geometricPrecision" stroke-dasharray="0,8" stroke-width="2" stroke-miterlimit="1.45">
      <path fill="none" d="M1175.1772 250.3767 L1175.1772 217.309" clip-path="url(#clipPath2)"/>
      <path d="M1175.1772 204.934 L1168.4272 218.434 L1181.9272 218.434 Z" clip-path="url(#clipPath2)" stroke="none"/>
    </g>
    <g text-rendering="geometricPrecision" stroke-miterlimit="1.45" shape-rendering="geometricPrecision" transform="matrix(1,0,0,1,636,-15)" stroke-linecap="butt">
      <path fill="none" d="M147.6302 188.4058 L147.6302 217.4131" clip-path="url(#clipPath2)"/>
      <path d="M147.6302 225.4131 L152.6302 213.4131 L147.6302 216.4131 L142.6302 213.4131 Z" clip-path="url(#clipPath2)" stroke="none"/>
      <path fill="none" d="M-24.3657 109.4092 L-96.8673 109.4092" clip-path="url(#clipPath2)"/>
      <path d="M-107.8673 109.4092 L-95.8673 115.4092 L-95.8673 103.4092 Z" clip-path="url(#clipPath2)" stroke="none"/>
      <path fill="none" d="M-9.4594 366.3907 L-99.1018 285.7818" clip-path="url(#clipPath2)"/>
      <path d="M-107.2812 278.4267 L-102.3701 290.9119 L-94.3464 281.9889 Z" clip-path="url(#clipPath2)" stroke="none"/>
      <path fill="none" d="M55.2414 366.4119 L353.4026 281.4322" clip-path="url(#clipPath2)"/>
      <path d="M363.9814 278.4171 L350.7964 275.9361 L354.0855 287.4765 Z" clip-path="url(#clipPath2)" stroke="none"/>
    </g>
    <g stroke-linecap="round" transform="matrix(1,0,0,1,636,-15)" stroke-dashoffset="2" text-rendering="geometricPrecision" shape-rendering="geometricPrecision" stroke-dasharray="0,8" stroke-width="2" stroke-miterlimit="1.45">
      <path fill="none" d="M91.1472 371.9733 L1063.2529 275.515" clip-path="url(#clipPath2)"/>
      <path d="M1075.5675 274.2931 L1061.4669 268.9091 L1062.7999 282.3431 Z" clip-path="url(#clipPath2)" stroke="none"/>
    </g>
    <g text-rendering="geometricPrecision" stroke-miterlimit="1.45" shape-rendering="geometricPrecision" transform="matrix(1,0,0,1,636,-15)" stroke-linecap="butt">
      <path fill="none" d="M231.9411 366.4119 L-63.5719 281.4564" clip-path="url(#clipPath2)"/>
      <path d="M-74.1437 278.4171 L-64.2686 287.4991 L-60.9531 275.9662 Z" clip-path="url(#clipPath2)" stroke="none"/>
      <path fill="none" d="M296.6425 366.3907 L388.8422 285.6724" clip-path="url(#clipPath2)"/>
      <path d="M397.1186 278.4267 L384.1375 281.8167 L392.042 290.8456 Z" clip-path="url(#clipPath2)" stroke="none"/>
    </g>
    <g stroke-linecap="round" transform="matrix(1,0,0,1,636,-15)" stroke-dashoffset="2" text-rendering="geometricPrecision" shape-rendering="geometricPrecision" stroke-dasharray="0,8" stroke-width="2" stroke-miterlimit="1.45">
      <path fill="none" d="M343.1183 372.3061 L1063.2905 278.9181" clip-path="url(#clipPath2)"/>
      <path d="M1075.5627 277.3267 L1061.3068 272.3688 L1063.0428 285.7567 Z" clip-path="url(#clipPath2)" stroke="none"/>
    </g>
    <g text-rendering="geometricPrecision" stroke-miterlimit="1.45" stroke-dasharray="6,2" shape-rendering="geometricPrecision" transform="matrix(1,0,0,1,636,-15)" stroke-linecap="butt">
      <path fill="none" d="M218.1371 380.4092 L96.1451 380.4092" clip-path="url(#clipPath2)"/>
      <path d="M92.1451 380.4092 L104.1451 386.4092 L92.1451 380.4092 L104.1451 374.4092 Z" clip-path="url(#clipPath2)" stroke="none"/>
      <path fill="none" stroke-miterlimit="10" stroke-dasharray="none" d="M92.1451 380.4092 L104.1451 386.4092 L92.1451 380.4092 L104.1451 374.4092 Z" clip-path="url(#clipPath2)" stroke-linecap="square"/>
      <path fill="none" stroke-dasharray="none" d="M30.0014 366.407 L114.2774 316.973" clip-path="url(#clipPath2)"/>
      <path stroke-dasharray="none" d="M123.7655 311.4075 L110.3791 312.3036 L116.4505 322.6543 Z" clip-path="url(#clipPath2)" stroke="none"/>
      <path fill="none" stroke-dasharray="none" d="M258.1928 366.407 L179.3931 317.2312" clip-path="url(#clipPath2)"/>
      <path stroke-dasharray="none" d="M170.0612 311.4075 L177.0649 322.8508 L183.418 312.6705 Z" clip-path="url(#clipPath2)" stroke="none"/>
      <path fill="none" stroke-dasharray="none" d="M125.8317 457.3904 L37.1539 400.3609" clip-path="url(#clipPath2)"/>
      <path stroke-dasharray="none" d="M27.902 394.4109 L34.7496 405.9483 L41.2405 395.8553 Z" clip-path="url(#clipPath2)" stroke="none"/>
      <path fill="none" stroke-dasharray="none" d="M168.1191 457.3904 L251.0876 400.6224" clip-path="url(#clipPath2)"/>
      <path stroke-dasharray="none" d="M260.166 394.4109 L246.8742 396.2353 L253.6504 406.139 Z" clip-path="url(#clipPath2)" stroke="none"/>
      <path fill="none" stroke-dasharray="none" d="M89.1484 457.4015 L-166.0865 396.267" clip-path="url(#clipPath2)"/>
      <path stroke-dasharray="none" d="M-173.8664 394.4035 L-163.3612 402.0612 L-165.114 396.4999 L-161.0319 392.3363 Z" clip-path="url(#clipPath2)" stroke="none"/>
      <path fill="none" stroke-dasharray="none" d="M-253.2683 366.4048 L-378.3864 282.8707" clip-path="url(#clipPath2)"/>
      <path stroke-dasharray="none" d="M-385.0399 278.4286 L-377.836 289.2501 L-377.5548 283.426 L-372.2834 280.9333 Z" clip-path="url(#clipPath2)" stroke="none"/>
      <path fill="none" stroke-dasharray="none" d="M-375.544 250.4072 L-285.1238 208.889 L-285.1238 208.889 L-285.1238 151.3659 L-108.4457 151.3659 L-5.8841 125.3769" clip-path="url(#clipPath2)"/>
      <path stroke-dasharray="none" d="M1.8708 123.4118 L-10.9897 121.5126 L-6.8534 125.6226 L-8.5333 131.2063 Z" clip-path="url(#clipPath2)" stroke="none"/>
      <path fill="none" stroke-dasharray="none" d="M-415.8667 250.3767 L-443.1056 211.4866" clip-path="url(#clipPath2)"/>
      <path stroke-dasharray="none" d="M-447.6951 204.934 L-444.9062 217.6313 L-442.5319 212.3057 L-436.7155 211.8945 Z" clip-path="url(#clipPath2)" stroke="none"/>
      <path fill="none" stroke-dasharray="none" d="M-161.2839 371.8883 L609.7592 279.3647" clip-path="url(#clipPath2)"/>
      <path stroke-dasharray="none" d="M617.7021 278.4115 L605.1919 274.8769 L608.7662 279.4838 L606.3834 284.8057 Z" clip-path="url(#clipPath2)" stroke="none"/>
      <path fill="none" stroke-dasharray="none" d="M734.3902 250.3767 L734.3902 212.934" clip-path="url(#clipPath2)"/>
      <path stroke-dasharray="none" d="M734.3902 204.934 L729.3902 216.934 L734.3902 213.934 L739.3902 216.934 Z" clip-path="url(#clipPath2)" stroke="none"/>
      <path fill="none" stroke-dasharray="none" d="M683.0969 250.4155 L576.0653 221.2153 L576.0653 221.2153 L576.0653 158.2139 L403.4961 158.2139 L294.3047 125.6931" clip-path="url(#clipPath2)"/>
      <path stroke-dasharray="none" d="M286.6375 123.4096 L296.711 131.6268 L295.263 125.9785 L299.5654 122.0429 Z" clip-path="url(#clipPath2)" stroke="none"/>
    </g>
  </g>
</svg>
