<?xml version="1.0" encoding="UTF-8"?><svg xmlns="http://www.w3.org/2000/svg" xmlns:xlink="http://www.w3.org/1999/xlink" fill-opacity="1" color-rendering="auto" color-interpolation="auto" text-rendering="auto" stroke="black" stroke-linecap="square" width="1116" stroke-miterlimit="10" shape-rendering="auto" stroke-opacity="1" fill="black" stroke-dasharray="none" font-weight="normal" stroke-width="1" height="516" font-family="'Dialog'" font-style="normal" stroke-linejoin="miter" font-size="12px" stroke-dashoffset="0" image-rendering="auto">
  <!--Generated by ySVG 2.5-->
  <defs id="genericDefs"/>
  <g>
    <defs id="defs1">
      <clipPath clipPathUnits="userSpaceOnUse" id="clipPath1">
        <path d="M0 0 L1116 0 L1116 516 L0 516 L0 0 Z"/>
      </clipPath>
      <clipPath clipPathUnits="userSpaceOnUse" id="clipPath2">
        <path d="M189 146 L1305 146 L1305 662 L189 662 L189 146 Z"/>
      </clipPath>
      <clipPath clipPathUnits="userSpaceOnUse" id="clipPath3">
        <path d="M185 142 L1301 142 L1301 658 L185 658 L185 142 Z"/>
      </clipPath>
    </defs>
    <g fill="rgb(153,204,0)" text-rendering="geometricPrecision" shape-rendering="geometricPrecision" transform="matrix(1,0,0,1,-189,-146)" stroke="rgb(153,204,0)">
      <path d="M546.0001 161 L672.9999 161 L672.9999 176 L687.9999 176 L687.9999 189 L546.0001 189 Z" stroke="none" clip-path="url(#clipPath2)"/>
    </g>
    <g fill="white" text-rendering="geometricPrecision" shape-rendering="geometricPrecision" transform="matrix(1,0,0,1,-189,-146)" stroke="white">
      <path d="M672.9999 161 L672.9999 176 L687.9999 176 Z" fill-rule="evenodd" clip-path="url(#clipPath2)" stroke="none"/>
    </g>
    <g text-rendering="geometricPrecision" stroke-miterlimit="1.45" shape-rendering="geometricPrecision" transform="matrix(1,0,0,1,-189,-146)" stroke-linecap="butt">
      <path fill="none" d="M546.0001 161 L672.9999 161 L672.9999 176 L687.9999 176 L687.9999 189 L546.0001 189 Z" clip-path="url(#clipPath2)"/>
      <path fill="none" d="M672.9999 161 L672.9999 176 L687.9999 176 Z" clip-path="url(#clipPath2)" fill-rule="evenodd"/>
      <text x="567.0001" font-size="20px" y="181.6" clip-path="url(#clipPath2)" font-family="'Ubuntu Mono'" stroke="none" xml:space="preserve">linda-core</text>
    </g>
    <g fill="rgb(255,204,0)" text-rendering="geometricPrecision" shape-rendering="geometricPrecision" transform="matrix(1,0,0,1,-189,-146)" stroke="rgb(255,204,0)">
      <path d="M445.0001 226 L592.9999 226 L592.9999 241 L607.9999 241 L607.9999 254 L445.0001 254 Z" stroke="none" clip-path="url(#clipPath2)"/>
      <path fill="white" d="M592.9999 226 L592.9999 241 L607.9999 241 Z" clip-path="url(#clipPath2)" fill-rule="evenodd" stroke="none"/>
    </g>
    <g text-rendering="geometricPrecision" stroke-miterlimit="1.45" shape-rendering="geometricPrecision" transform="matrix(1,0,0,1,-189,-146)" stroke-linecap="butt">
      <path fill="none" d="M445.0001 226 L592.9999 226 L592.9999 241 L607.9999 241 L607.9999 254 L445.0001 254 Z" clip-path="url(#clipPath2)"/>
      <path fill="none" d="M592.9999 226 L592.9999 241 L607.9999 241 Z" clip-path="url(#clipPath2)" fill-rule="evenodd"/>
      <text x="471.5001" font-size="20px" y="246.6" clip-path="url(#clipPath2)" font-family="'Ubuntu Mono'" stroke="none" xml:space="preserve">linda-logic</text>
      <path fill="none" d="M546.0096 225.9875 L588.5502 195.4335" clip-path="url(#clipPath2)"/>
      <path d="M597.4846 189.0166 L584.2379 191.1436 L591.2381 200.8902 Z" clip-path="url(#clipPath2)" stroke="none"/>
    </g>
    <g fill="rgb(210,210,210)" text-rendering="geometricPrecision" shape-rendering="geometricPrecision" transform="matrix(1,0,0,1,-189,-146) translate(4,4)" stroke="rgb(210,210,210)">
      <rect x="973.6074" width="308.5209" height="166.9425" y="475.8847" clip-path="url(#clipPath3)" stroke="none"/>
    </g>
    <g fill="rgb(242,240,216)" text-rendering="geometricPrecision" shape-rendering="geometricPrecision" transform="matrix(1,0,0,1,-189,-146)" stroke="rgb(242,240,216)">
      <rect x="973.6074" width="308.5209" height="166.9425" y="475.8847" clip-path="url(#clipPath2)" stroke="none"/>
      <rect x="973.6074" y="475.8847" clip-path="url(#clipPath2)" fill="rgb(183,182,158)" width="308.5209" height="21.4609" stroke="none"/>
    </g>
    <g font-size="15px" stroke-linecap="butt" transform="matrix(1,0,0,1,-189,-146)" text-rendering="geometricPrecision" font-family="sans-serif" shape-rendering="geometricPrecision" stroke-miterlimit="1.45">
      <text x="1224.7645" xml:space="preserve" y="491.808" clip-path="url(#clipPath2)" stroke="none">Legend</text>
      <rect fill="none" x="973.6074" width="308.5209" height="166.9425" y="475.8847" clip-path="url(#clipPath2)"/>
    </g>
    <g fill="rgb(255,204,0)" text-rendering="geometricPrecision" shape-rendering="geometricPrecision" transform="matrix(1,0,0,1,-189,-146)" stroke="rgb(255,204,0)">
      <path d="M978.6074 502.3456 L1081.5433 502.3456 L1081.5433 517.3456 L1096.5433 517.3456 L1096.5433 530.3456 L978.6074 530.3456 Z" stroke="none" clip-path="url(#clipPath2)"/>
      <path fill="white" d="M1081.5433 502.3456 L1081.5433 517.3456 L1096.5433 517.3456 Z" clip-path="url(#clipPath2)" fill-rule="evenodd" stroke="none"/>
    </g>
    <g text-rendering="geometricPrecision" stroke-miterlimit="1.45" shape-rendering="geometricPrecision" transform="matrix(1,0,0,1,-189,-146)" stroke-linecap="butt">
      <path fill="none" d="M978.6074 502.3456 L1081.5433 502.3456 L1081.5433 517.3456 L1096.5433 517.3456 L1096.5433 530.3456 L978.6074 530.3456 Z" clip-path="url(#clipPath2)"/>
      <path fill="none" d="M1081.5433 502.3456 L1081.5433 517.3456 L1096.5433 517.3456 Z" clip-path="url(#clipPath2)" fill-rule="evenodd"/>
      <text x="1007.5754" font-size="20px" y="522.9456" clip-path="url(#clipPath2)" font-family="'Ubuntu Mono'" stroke="none" xml:space="preserve">module</text>
    </g>
    <g fill="rgb(153,204,0)" text-rendering="geometricPrecision" shape-rendering="geometricPrecision" transform="matrix(1,0,0,1,-189,-146)" stroke="rgb(153,204,0)">
      <path d="M978.6074 538.1728 L1081.5433 538.1728 L1081.5433 553.1728 L1096.5433 553.1728 L1096.5433 566.1728 L978.6074 566.1728 Z" stroke="none" clip-path="url(#clipPath2)"/>
      <path fill="white" d="M1081.5433 538.1728 L1081.5433 553.1728 L1096.5433 553.1728 Z" clip-path="url(#clipPath2)" fill-rule="evenodd" stroke="none"/>
    </g>
    <g text-rendering="geometricPrecision" stroke-miterlimit="1.45" shape-rendering="geometricPrecision" transform="matrix(1,0,0,1,-189,-146)" stroke-linecap="butt">
      <path fill="none" d="M978.6074 538.1728 L1081.5433 538.1728 L1081.5433 553.1728 L1096.5433 553.1728 L1096.5433 566.1728 L978.6074 566.1728 Z" clip-path="url(#clipPath2)"/>
      <path fill="none" d="M1081.5433 538.1728 L1081.5433 553.1728 L1096.5433 553.1728 Z" clip-path="url(#clipPath2)" fill-rule="evenodd"/>
      <text x="1017.5754" font-size="20px" y="558.7728" clip-path="url(#clipPath2)" font-family="'Ubuntu Mono'" stroke="none" xml:space="preserve">root</text>
    </g>
    <g fill="yellow" text-rendering="geometricPrecision" shape-rendering="geometricPrecision" transform="matrix(1,0,0,1,-189,-146)" stroke="yellow">
      <path d="M979.7354 574 L1081.5433 574 L1081.5433 589 L1096.5433 589 L1096.5433 602 L979.7354 602 Z" stroke="none" clip-path="url(#clipPath2)"/>
      <path fill="white" d="M1081.5433 574 L1081.5433 589 L1096.5433 589 Z" clip-path="url(#clipPath2)" fill-rule="evenodd" stroke="none"/>
    </g>
    <g text-rendering="geometricPrecision" stroke-miterlimit="1.45" shape-rendering="geometricPrecision" transform="matrix(1,0,0,1,-189,-146)" stroke-linecap="butt">
      <path fill="none" d="M979.7354 574 L1081.5433 574 L1081.5433 589 L1096.5433 589 L1096.5433 602 L979.7354 602 Z" clip-path="url(#clipPath2)"/>
      <path fill="none" d="M1081.5433 574 L1081.5433 589 L1096.5433 589 Z" clip-path="url(#clipPath2)" fill-rule="evenodd"/>
      <text x="998.1394" font-size="20px" y="594.6" clip-path="url(#clipPath2)" font-family="'Ubuntu Mono'" stroke="none" xml:space="preserve">runnable</text>
    </g>
    <g stroke-linecap="round" transform="matrix(1,0,0,1,-189,-146)" stroke-dashoffset="2" text-rendering="geometricPrecision" shape-rendering="geometricPrecision" stroke-dasharray="0,8" stroke-width="2" stroke-miterlimit="1.45">
      <path fill="none" d="M1116.6274 502.3456 L1254.1273 502.3456 L1254.1273 517.3456 L1269.1273 517.3456 L1269.1273 530.3456 L1116.6274 530.3456 Z" clip-path="url(#clipPath2)"/>
      <path fill="none" d="M1254.1273 502.3456 L1254.1273 517.3456 L1269.1273 517.3456 Z" clip-path="url(#clipPath2)" fill-rule="evenodd"/>
    </g>
    <g font-size="20px" stroke-linecap="butt" transform="matrix(1,0,0,1,-189,-146)" text-rendering="geometricPrecision" font-family="'Ubuntu Mono'" shape-rendering="geometricPrecision" stroke-miterlimit="1.45">
      <text x="1157.8774" xml:space="preserve" y="522.9456" clip-path="url(#clipPath2)" stroke="none">virtual</text>
    </g>
    <g fill="rgb(0,204,255)" text-rendering="geometricPrecision" shape-rendering="geometricPrecision" transform="matrix(1,0,0,1,-189,-146)" stroke="rgb(0,204,255)">
      <path d="M979.7354 609.8272 L1081.5433 609.8272 L1081.5433 624.8272 L1096.5433 624.8272 L1096.5433 637.8272 L979.7354 637.8272 Z" stroke="none" clip-path="url(#clipPath2)"/>
      <path fill="white" d="M1081.5433 609.8272 L1081.5433 624.8272 L1096.5433 624.8272 Z" clip-path="url(#clipPath2)" fill-rule="evenodd" stroke="none"/>
    </g>
    <g text-rendering="geometricPrecision" stroke-miterlimit="1.45" shape-rendering="geometricPrecision" transform="matrix(1,0,0,1,-189,-146)" stroke-linecap="butt">
      <path fill="none" d="M979.7354 609.8272 L1081.5433 609.8272 L1081.5433 624.8272 L1096.5433 624.8272 L1096.5433 637.8272 L979.7354 637.8272 Z" clip-path="url(#clipPath2)"/>
      <path fill="none" d="M1081.5433 609.8272 L1081.5433 624.8272 L1096.5433 624.8272 Z" clip-path="url(#clipPath2)" fill-rule="evenodd"/>
      <text x="998.1394" font-size="20px" y="630.4272" clip-path="url(#clipPath2)" font-family="'Ubuntu Mono'" stroke="none" xml:space="preserve">external</text>
    </g>
    <g fill="rgb(255,204,0)" text-rendering="geometricPrecision" shape-rendering="geometricPrecision" transform="matrix(1,0,0,1,-189,-146)" stroke="rgb(255,204,0)">
      <path d="M637.9999 226 L764.9998 226 L764.9998 241 L779.9998 241 L779.9998 254 L637.9999 254 Z" stroke="none" clip-path="url(#clipPath2)"/>
      <path fill="white" d="M764.9998 226 L764.9998 241 L779.9998 241 Z" clip-path="url(#clipPath2)" fill-rule="evenodd" stroke="none"/>
    </g>
    <g text-rendering="geometricPrecision" stroke-miterlimit="1.45" shape-rendering="geometricPrecision" transform="matrix(1,0,0,1,-189,-146)" stroke-linecap="butt">
      <path fill="none" d="M637.9999 226 L764.9998 226 L764.9998 241 L779.9998 241 L779.9998 254 L637.9999 254 Z" clip-path="url(#clipPath2)"/>
      <path fill="none" d="M764.9998 226 L764.9998 241 L779.9998 241 Z" clip-path="url(#clipPath2)" fill-rule="evenodd"/>
      <text x="658.9999" font-size="20px" y="246.6" clip-path="url(#clipPath2)" font-family="'Ubuntu Mono'" stroke="none" xml:space="preserve">linda-text</text>
    </g>
    <g stroke-linecap="round" transform="matrix(1,0,0,1,-189,-146)" stroke-dashoffset="2" text-rendering="geometricPrecision" shape-rendering="geometricPrecision" stroke-dasharray="0,8" stroke-width="2" stroke-miterlimit="1.45">
      <path fill="none" d="M856.9998 226 L972.9997 226 L972.9997 241 L987.9997 241 L987.9997 254 L856.9998 254 Z" clip-path="url(#clipPath2)"/>
      <path fill="none" d="M972.9997 226 L972.9997 241 L987.9997 241 Z" clip-path="url(#clipPath2)" fill-rule="evenodd"/>
    </g>
    <g font-size="20px" stroke-linecap="butt" transform="matrix(1,0,0,1,-189,-146)" text-rendering="geometricPrecision" font-family="'Ubuntu Mono'" shape-rendering="geometricPrecision" stroke-miterlimit="1.45">
      <text x="887.4998" xml:space="preserve" y="246.6" clip-path="url(#clipPath2)" stroke="none">linda-*</text>
    </g>
    <g fill="rgb(153,204,0)" text-rendering="geometricPrecision" shape-rendering="geometricPrecision" transform="matrix(1,0,0,1,-189,-146)" stroke="rgb(153,204,0)">
      <path d="M535.5001 291 L683.4999 291 L683.4999 306 L698.4999 306 L698.4999 319 L535.5001 319 Z" stroke="none" clip-path="url(#clipPath2)"/>
      <path fill="white" d="M683.4999 291 L683.4999 306 L698.4999 306 Z" clip-path="url(#clipPath2)" fill-rule="evenodd" stroke="none"/>
    </g>
    <g text-rendering="geometricPrecision" stroke-miterlimit="1.45" shape-rendering="geometricPrecision" transform="matrix(1,0,0,1,-189,-146)" stroke-linecap="butt">
      <path fill="none" d="M535.5001 291 L683.4999 291 L683.4999 306 L698.4999 306 L698.4999 319 L535.5001 319 Z" clip-path="url(#clipPath2)"/>
      <path fill="none" d="M683.4999 291 L683.4999 306 L698.4999 306 Z" clip-path="url(#clipPath2)" fill-rule="evenodd"/>
      <text x="557.0001" font-size="20px" y="311.6" clip-path="url(#clipPath2)" font-family="'Ubuntu Mono'" stroke="none" xml:space="preserve">presentation</text>
    </g>
    <g fill="rgb(255,204,0)" text-rendering="geometricPrecision" shape-rendering="geometricPrecision" transform="matrix(1,0,0,1,-189,-146)" stroke="rgb(255,204,0)">
      <path d="M204.5005 307.5 L473.5001 307.5 L473.5001 322.5 L488.5001 322.5 L488.5001 335.5 L204.5005 335.5 Z" stroke="none" clip-path="url(#clipPath2)"/>
      <path fill="white" d="M473.5001 307.5 L473.5001 322.5 L488.5001 322.5 Z" clip-path="url(#clipPath2)" fill-rule="evenodd" stroke="none"/>
    </g>
    <g text-rendering="geometricPrecision" stroke-miterlimit="1.45" shape-rendering="geometricPrecision" transform="matrix(1,0,0,1,-189,-146)" stroke-linecap="butt">
      <path fill="none" d="M204.5005 307.5 L473.5001 307.5 L473.5001 322.5 L488.5001 322.5 L488.5001 335.5 L204.5005 335.5 Z" clip-path="url(#clipPath2)"/>
      <path fill="none" d="M473.5001 307.5 L473.5001 322.5 L488.5001 322.5 Z" clip-path="url(#clipPath2)" fill-rule="evenodd"/>
      <text x="226.5005" font-size="20px" y="328.1" clip-path="url(#clipPath2)" font-family="'Ubuntu Mono'" stroke="none" xml:space="preserve">linda-logic-presentation</text>
    </g>
    <g fill="rgb(255,204,0)" text-rendering="geometricPrecision" shape-rendering="geometricPrecision" transform="matrix(1,0,0,1,-189,-146)" stroke="rgb(255,204,0)">
      <path d="M745.4999 307.5 L1004.4996 307.5 L1004.4996 322.5 L1019.4996 322.5 L1019.4996 335.5 L745.4999 335.5 Z" stroke="none" clip-path="url(#clipPath2)"/>
      <path fill="white" d="M1004.4996 307.5 L1004.4996 322.5 L1019.4996 322.5 Z" clip-path="url(#clipPath2)" fill-rule="evenodd" stroke="none"/>
    </g>
    <g text-rendering="geometricPrecision" stroke-miterlimit="1.45" shape-rendering="geometricPrecision" transform="matrix(1,0,0,1,-189,-146)" stroke-linecap="butt">
      <path fill="none" d="M745.4999 307.5 L1004.4996 307.5 L1004.4996 322.5 L1019.4996 322.5 L1019.4996 335.5 L745.4999 335.5 Z" clip-path="url(#clipPath2)"/>
      <path fill="none" d="M1004.4996 307.5 L1004.4996 322.5 L1019.4996 322.5 Z" clip-path="url(#clipPath2)" fill-rule="evenodd"/>
      <text x="767.4999" font-size="20px" y="328.1" clip-path="url(#clipPath2)" font-family="'Ubuntu Mono'" stroke="none" xml:space="preserve">linda-text-presentation</text>
    </g>
    <g stroke-linecap="round" transform="matrix(1,0,0,1,-189,-146)" stroke-dashoffset="2" text-rendering="geometricPrecision" shape-rendering="geometricPrecision" stroke-dasharray="0,8" stroke-width="2" stroke-miterlimit="1.45">
      <path fill="none" d="M1049.4995 307.5 L1274.4993 307.5 L1274.4993 322.5 L1289.4993 322.5 L1289.4993 335.5 L1049.4995 335.5 Z" clip-path="url(#clipPath2)"/>
      <path fill="none" d="M1274.4993 307.5 L1274.4993 322.5 L1289.4993 322.5 Z" clip-path="url(#clipPath2)" fill-rule="evenodd"/>
    </g>
    <g font-size="20px" stroke-linecap="butt" transform="matrix(1,0,0,1,-189,-146)" text-rendering="geometricPrecision" font-family="'Ubuntu Mono'" shape-rendering="geometricPrecision" stroke-miterlimit="1.45">
      <text x="1069.4995" xml:space="preserve" y="328.1" clip-path="url(#clipPath2)" stroke="none">linda-*-presentation</text>
    </g>
    <g fill="rgb(255,204,0)" text-rendering="geometricPrecision" shape-rendering="geometricPrecision" transform="matrix(1,0,0,1,-189,-146)" stroke="rgb(255,204,0)">
      <path d="M235.0004 381 L443.0001 381 L443.0001 396 L458.0001 396 L458.0001 409 L235.0004 409 Z" stroke="none" clip-path="url(#clipPath2)"/>
      <path fill="white" d="M443.0001 381 L443.0001 396 L458.0001 396 Z" clip-path="url(#clipPath2)" fill-rule="evenodd" stroke="none"/>
    </g>
    <g text-rendering="geometricPrecision" stroke-miterlimit="1.45" shape-rendering="geometricPrecision" transform="matrix(1,0,0,1,-189,-146)" stroke-linecap="butt">
      <path fill="none" d="M235.0004 381 L443.0001 381 L443.0001 396 L458.0001 396 L458.0001 409 L235.0004 409 Z" clip-path="url(#clipPath2)"/>
      <path fill="none" d="M443.0001 381 L443.0001 396 L458.0001 396 Z" clip-path="url(#clipPath2)" fill-rule="evenodd"/>
      <text x="256.5004" font-size="20px" y="401.6" clip-path="url(#clipPath2)" font-family="'Ubuntu Mono'" stroke="none" xml:space="preserve">linda-logic-client</text>
    </g>
    <g fill="rgb(255,204,0)" text-rendering="geometricPrecision" shape-rendering="geometricPrecision" transform="matrix(1,0,0,1,-189,-146)" stroke="rgb(255,204,0)">
      <path d="M770.9999 381 L978.9996 381 L978.9996 396 L993.9996 396 L993.9996 409 L770.9999 409 Z" stroke="none" clip-path="url(#clipPath2)"/>
      <path fill="white" d="M978.9996 381 L978.9996 396 L993.9996 396 Z" clip-path="url(#clipPath2)" fill-rule="evenodd" stroke="none"/>
    </g>
    <g text-rendering="geometricPrecision" stroke-miterlimit="1.45" shape-rendering="geometricPrecision" transform="matrix(1,0,0,1,-189,-146)" stroke-linecap="butt">
      <path fill="none" d="M770.9999 381 L978.9996 381 L978.9996 396 L993.9996 396 L993.9996 409 L770.9999 409 Z" clip-path="url(#clipPath2)"/>
      <path fill="none" d="M978.9996 381 L978.9996 396 L993.9996 396 Z" clip-path="url(#clipPath2)" fill-rule="evenodd"/>
      <text x="797.4999" font-size="20px" y="401.6" clip-path="url(#clipPath2)" font-family="'Ubuntu Mono'" stroke="none" xml:space="preserve">linda-text-client</text>
    </g>
    <g stroke-linecap="round" transform="matrix(1,0,0,1,-189,-146)" stroke-dashoffset="2" text-rendering="geometricPrecision" shape-rendering="geometricPrecision" stroke-dasharray="0,8" stroke-width="2" stroke-miterlimit="1.45">
      <path fill="none" d="M1069.8715 381 L1254.1273 381 L1254.1273 396 L1269.1273 396 L1269.1273 409 L1069.8715 409 Z" clip-path="url(#clipPath2)"/>
      <path fill="none" d="M1254.1273 381 L1254.1273 396 L1269.1273 396 Z" clip-path="url(#clipPath2)" fill-rule="evenodd"/>
    </g>
    <g font-size="20px" stroke-linecap="butt" transform="matrix(1,0,0,1,-189,-146)" text-rendering="geometricPrecision" font-family="'Ubuntu Mono'" shape-rendering="geometricPrecision" stroke-miterlimit="1.45">
      <text x="1099.4995" xml:space="preserve" y="401.6" clip-path="url(#clipPath2)" stroke="none">linda-*-client</text>
    </g>
    <g fill="rgb(0,204,255)" text-rendering="geometricPrecision" shape-rendering="geometricPrecision" transform="matrix(1,0,0,1,-189,-146)" stroke="rgb(0,204,255)">
      <path d="M560.5001 356 L658.4999 356 L658.4999 371 L673.4999 371 L673.4999 384 L560.5001 384 Z" stroke="none" clip-path="url(#clipPath2)"/>
      <path fill="white" d="M658.4999 356 L658.4999 371 L673.4999 371 Z" clip-path="url(#clipPath2)" fill-rule="evenodd" stroke="none"/>
    </g>
    <g text-rendering="geometricPrecision" stroke-miterlimit="1.45" shape-rendering="geometricPrecision" transform="matrix(1,0,0,1,-189,-146)" stroke-linecap="butt">
      <path fill="none" d="M560.5001 356 L658.4999 356 L658.4999 371 L673.4999 371 L673.4999 384 L560.5001 384 Z" clip-path="url(#clipPath2)"/>
      <path fill="none" d="M658.4999 356 L658.4999 371 L673.4999 371 Z" clip-path="url(#clipPath2)" fill-rule="evenodd"/>
      <text x="582.0001" font-size="20px" y="376.6" clip-path="url(#clipPath2)" font-family="'Ubuntu Mono'" stroke="none" xml:space="preserve">jackson</text>
    </g>
    <g fill="rgb(0,204,255)" text-rendering="geometricPrecision" shape-rendering="geometricPrecision" transform="matrix(1,0,0,1,-189,-146)" stroke="rgb(0,204,255)">
      <path d="M264.5001 226 L346.5 226 L346.5 241 L361.5 241 L361.5 254 L264.5001 254 Z" stroke="none" clip-path="url(#clipPath2)"/>
      <path fill="white" d="M346.5 226 L346.5 241 L361.5 241 Z" clip-path="url(#clipPath2)" fill-rule="evenodd" stroke="none"/>
    </g>
    <g text-rendering="geometricPrecision" stroke-miterlimit="1.45" shape-rendering="geometricPrecision" transform="matrix(1,0,0,1,-189,-146)" stroke-linecap="butt">
      <path fill="none" d="M264.5001 226 L346.5 226 L346.5 241 L361.5 241 L361.5 254 L264.5001 254 Z" clip-path="url(#clipPath2)"/>
      <path fill="none" d="M346.5 226 L346.5 241 L361.5 241 Z" clip-path="url(#clipPath2)" fill-rule="evenodd"/>
      <text x="288.0001" font-size="20px" y="246.6" clip-path="url(#clipPath2)" font-family="'Ubuntu Mono'" stroke="none" xml:space="preserve">2p-kt</text>
    </g>
    <g fill="yellow" text-rendering="geometricPrecision" shape-rendering="geometricPrecision" transform="matrix(1,0,0,1,-189,-146)" stroke="yellow">
      <path d="M390.5001 497 L545.4999 497 L545.4999 512 L560.4999 512 L560.4999 525 L390.5001 525 Z" stroke="none" clip-path="url(#clipPath2)"/>
      <path fill="white" d="M545.4999 497 L545.4999 512 L560.4999 512 Z" clip-path="url(#clipPath2)" fill-rule="evenodd" stroke="none"/>
    </g>
    <g text-rendering="geometricPrecision" stroke-miterlimit="1.45" shape-rendering="geometricPrecision" transform="matrix(1,0,0,1,-189,-146)" stroke-linecap="butt">
      <path fill="none" d="M390.5001 497 L545.4999 497 L545.4999 512 L560.4999 512 L560.4999 525 L390.5001 525 Z" clip-path="url(#clipPath2)"/>
      <path fill="none" d="M545.4999 497 L545.4999 512 L560.4999 512 Z" clip-path="url(#clipPath2)" fill-rule="evenodd"/>
      <text x="410.5001" font-size="20px" y="517.6" clip-path="url(#clipPath2)" font-family="'Ubuntu Mono'" stroke="none" xml:space="preserve">tusow-service</text>
    </g>
    <g fill="yellow" text-rendering="geometricPrecision" shape-rendering="geometricPrecision" transform="matrix(1,0,0,1,-189,-146)" stroke="yellow">
      <path d="M687.4999 497 L797.4998 497 L797.4998 512 L812.4998 512 L812.4998 525 L687.4999 525 Z" stroke="none" clip-path="url(#clipPath2)"/>
      <path fill="white" d="M797.4998 497 L797.4998 512 L812.4998 512 Z" clip-path="url(#clipPath2)" fill-rule="evenodd" stroke="none"/>
    </g>
    <g text-rendering="geometricPrecision" stroke-miterlimit="1.45" shape-rendering="geometricPrecision" transform="matrix(1,0,0,1,-189,-146)" stroke-linecap="butt">
      <path fill="none" d="M687.4999 497 L797.4998 497 L797.4998 512 L812.4998 512 L812.4998 525 L687.4999 525 Z" clip-path="url(#clipPath2)"/>
      <path fill="none" d="M797.4998 497 L797.4998 512 L812.4998 512 Z" clip-path="url(#clipPath2)" fill-rule="evenodd"/>
      <text x="704.9999" font-size="20px" y="517.6" clip-path="url(#clipPath2)" font-family="'Ubuntu Mono'" stroke="none" xml:space="preserve">tusow-cli</text>
    </g>
    <g fill="rgb(0,204,255)" text-rendering="geometricPrecision" shape-rendering="geometricPrecision" transform="matrix(1,0,0,1,-189,-146)" stroke="rgb(0,204,255)">
      <path d="M560.5001 414 L658.4999 414 L658.4999 429 L673.4999 429 L673.4999 442 L560.5001 442 Z" stroke="none" clip-path="url(#clipPath2)"/>
      <path fill="white" d="M658.4999 414 L658.4999 429 L673.4999 429 Z" clip-path="url(#clipPath2)" fill-rule="evenodd" stroke="none"/>
    </g>
    <g text-rendering="geometricPrecision" stroke-miterlimit="1.45" shape-rendering="geometricPrecision" transform="matrix(1,0,0,1,-189,-146)" stroke-linecap="butt">
      <path fill="none" d="M560.5001 414 L658.4999 414 L658.4999 429 L673.4999 429 L673.4999 442 L560.5001 442 Z" clip-path="url(#clipPath2)"/>
      <path fill="none" d="M658.4999 414 L658.4999 429 L673.4999 429 Z" clip-path="url(#clipPath2)" fill-rule="evenodd"/>
      <text x="587.0001" font-size="20px" y="434.6" clip-path="url(#clipPath2)" font-family="'Ubuntu Mono'" stroke="none" xml:space="preserve">vert.x</text>
    </g>
    <g fill="rgb(255,204,0)" text-rendering="geometricPrecision" shape-rendering="geometricPrecision" transform="matrix(1,0,0,1,-189,-146)" stroke="rgb(255,204,0)">
      <path d="M540.7501 588 L678.2499 588 L678.2499 603 L693.2499 603 L693.2499 616 L540.7501 616 Z" stroke="none" clip-path="url(#clipPath2)"/>
      <path fill="white" d="M678.2499 588 L678.2499 603 L693.2499 603 Z" clip-path="url(#clipPath2)" fill-rule="evenodd" stroke="none"/>
    </g>
    <g text-rendering="geometricPrecision" stroke-miterlimit="1.45" shape-rendering="geometricPrecision" transform="matrix(1,0,0,1,-189,-146)" stroke-linecap="butt">
      <path fill="none" d="M540.7501 588 L678.2499 588 L678.2499 603 L693.2499 603 L693.2499 616 L540.7501 616 Z" clip-path="url(#clipPath2)"/>
      <path fill="none" d="M678.2499 588 L678.2499 603 L693.2499 603 Z" clip-path="url(#clipPath2)" fill-rule="evenodd"/>
      <text x="567.0001" font-size="20px" y="608.6" clip-path="url(#clipPath2)" font-family="'Ubuntu Mono'" stroke="none" xml:space="preserve">tusow-full</text>
      <path fill="none" d="M1112.5433 559 L1263.1283 559" clip-path="url(#clipPath2)"/>
      <path d="M1274.1283 559 L1262.1283 553 L1262.1283 565 Z" clip-path="url(#clipPath2)" stroke="none"/>
      <text x="1142.0046" xml:space="preserve" y="550.5607" clip-path="url(#clipPath2)" font-family="sans-serif" stroke="none">depends on</text>
      <path fill="none" stroke-dasharray="6,2" d="M1112.5433 589 L1269.1283 589" clip-path="url(#clipPath2)"/>
      <path stroke-dasharray="6,2" d="M1273.1283 589 L1261.1283 583 L1273.1283 589 L1261.1283 595 Z" clip-path="url(#clipPath2)" stroke="none"/>
      <path fill="none" stroke-miterlimit="10" d="M1273.1283 589 L1261.1283 583 L1273.1283 589 L1261.1283 595 Z" clip-path="url(#clipPath2)" stroke-linecap="square"/>
      <text x="1179.5897" xml:space="preserve" y="580.5607" clip-path="url(#clipPath2)" font-family="sans-serif" stroke="none">uses</text>
    </g>
    <g stroke-linecap="round" transform="matrix(1,0,0,1,-189,-146)" stroke-dashoffset="2" text-rendering="geometricPrecision" shape-rendering="geometricPrecision" stroke-dasharray="0,8" stroke-width="2" stroke-miterlimit="1.45">
      <path fill="none" d="M1112.5433 621.5 L1261.7533 621.5" clip-path="url(#clipPath2)"/>
      <path d="M1274.1283 621.5 L1260.6283 614.75 L1260.6283 628.25 Z" clip-path="url(#clipPath2)" stroke="none"/>
    </g>
    <g text-rendering="geometricPrecision" stroke-miterlimit="1.45" shape-rendering="geometricPrecision" font-family="sans-serif" transform="matrix(1,0,0,1,-189,-146)" stroke-linecap="butt">
      <text x="1141.2899" xml:space="preserve" y="613.0607" clip-path="url(#clipPath2)" stroke="none">virtually depends</text>
      <path fill="none" d="M689.1669 225.9875 L645.8228 195.364" clip-path="url(#clipPath2)"/>
      <path d="M636.8388 189.0166 L643.1772 200.8413 L650.1016 191.0407 Z" clip-path="url(#clipPath2)" stroke="none"/>
    </g>
    <g stroke-linecap="round" transform="matrix(1,0,0,1,-189,-146)" stroke-dashoffset="2" text-rendering="geometricPrecision" shape-rendering="geometricPrecision" stroke-dasharray="0,8" stroke-width="2" stroke-miterlimit="1.45">
      <path fill="none" d="M856.9769 226.059 L694.9278 191.5804" clip-path="url(#clipPath2)"/>
      <path d="M682.8237 189.0051 L694.6234 198.4167 L697.4329 185.2123 Z" clip-path="url(#clipPath2)" stroke="none"/>
    </g>
    <g text-rendering="geometricPrecision" stroke-miterlimit="1.45" shape-rendering="geometricPrecision" transform="matrix(1,0,0,1,-189,-146)" stroke-linecap="butt">
      <path fill="none" d="M377.3938 307.5121 L485.5733 258.5308" clip-path="url(#clipPath2)"/>
      <path d="M495.594 253.9936 L482.1875 253.4774 L487.1371 264.4091 Z" clip-path="url(#clipPath2)" stroke="none"/>
      <path fill="none" d="M488.5192 312.8371 L524.4966 310.6425" clip-path="url(#clipPath2)"/>
      <path d="M535.4762 309.9728 L523.1331 304.7146 L523.8638 316.6923 Z" clip-path="url(#clipPath2)" stroke="none"/>
      <path fill="none" d="M852.7218 307.5121 L748.7461 258.6704" clip-path="url(#clipPath2)"/>
      <path d="M738.7899 253.9936 L747.1002 264.5263 L752.2022 253.6649 Z" clip-path="url(#clipPath2)" stroke="none"/>
      <path fill="none" d="M745.5042 312.9861 L709.4548 310.7458" clip-path="url(#clipPath2)"/>
      <path d="M698.476 310.0635 L710.0807 316.7963 L710.825 304.8194 Z" clip-path="url(#clipPath2)" stroke="none"/>
    </g>
    <g stroke-linecap="round" transform="matrix(1,0,0,1,-189,-146)" stroke-dashoffset="2" text-rendering="geometricPrecision" shape-rendering="geometricPrecision" stroke-dasharray="0,8" stroke-width="2" stroke-miterlimit="1.45">
      <path fill="none" d="M1127.0765 307.5021 L976.6802 257.8774" clip-path="url(#clipPath2)"/>
      <path d="M964.9285 253.9998 L975.6335 264.64 L979.8636 251.8198 Z" clip-path="url(#clipPath2)" stroke="none"/>
      <path fill="none" d="M1105.6875 307.4994 L1100.8253 306.4326 L1032.0404 295.0809 L963.1444 287.4449 L894.1375 283.5245 L825.0195 283.3199 L755.7906 286.8309 L710.7785 291.5221" clip-path="url(#clipPath2)"/>
      <path d="M698.4702 292.8049 L712.5971 298.1191 L711.1977 284.6919 Z" clip-path="url(#clipPath2)" stroke="none"/>
    </g>
    <g text-rendering="geometricPrecision" stroke-miterlimit="1.45" shape-rendering="geometricPrecision" transform="matrix(1,0,0,1,-189,-146)" stroke-linecap="butt">
      <path fill="none" d="M346.5003 380.9675 L346.5003 346.5248" clip-path="url(#clipPath2)"/>
      <path d="M346.5003 335.5248 L340.5003 347.5248 L352.5003 347.5248 Z" clip-path="url(#clipPath2)" stroke="none"/>
      <path fill="none" d="M882.4998 380.9675 L882.4998 346.5248" clip-path="url(#clipPath2)"/>
      <path d="M882.4998 335.5248 L876.4998 347.5248 L888.4998 347.5248 Z" clip-path="url(#clipPath2)" stroke="none"/>
    </g>
    <g stroke-linecap="round" transform="matrix(1,0,0,1,-189,-146)" stroke-dashoffset="2" text-rendering="geometricPrecision" shape-rendering="geometricPrecision" stroke-dasharray="0,8" stroke-width="2" stroke-miterlimit="1.45">
      <path fill="none" d="M1169.4994 380.9675 L1169.4994 347.8998" clip-path="url(#clipPath2)"/>
      <path d="M1169.4994 335.5248 L1162.7494 349.0248 L1176.2494 349.0248 Z" clip-path="url(#clipPath2)" stroke="none"/>
    </g>
    <g text-rendering="geometricPrecision" stroke-miterlimit="1.45" shape-rendering="geometricPrecision" transform="matrix(1,0,0,1,-189,-146)" stroke-linecap="butt">
      <path fill="none" d="M617 318.9966 L617 348.0039" clip-path="url(#clipPath2)"/>
      <path d="M617 356.0039 L622 344.0039 L617 347.0039 L612 344.0039 Z" clip-path="url(#clipPath2)" stroke="none"/>
      <path fill="none" d="M445.0041 240 L372.5025 240" clip-path="url(#clipPath2)"/>
      <path d="M361.5025 240 L373.5025 246 L373.5025 234 Z" clip-path="url(#clipPath2)" stroke="none"/>
      <path fill="none" d="M459.9104 496.9814 L370.268 416.3726" clip-path="url(#clipPath2)"/>
      <path d="M362.0886 409.0175 L366.9997 421.5027 L375.0235 412.5797 Z" clip-path="url(#clipPath2)" stroke="none"/>
      <path fill="none" d="M524.6113 497.0027 L822.7725 412.023" clip-path="url(#clipPath2)"/>
      <path d="M833.3513 409.0079 L820.1663 406.5269 L823.4554 418.0673 Z" clip-path="url(#clipPath2)" stroke="none"/>
    </g>
    <g stroke-linecap="round" transform="matrix(1,0,0,1,-189,-146)" stroke-dashoffset="2" text-rendering="geometricPrecision" shape-rendering="geometricPrecision" stroke-dasharray="0,8" stroke-width="2" stroke-miterlimit="1.45">
      <path fill="none" d="M559.2425 497.0027 L1073.5249 411.0418" clip-path="url(#clipPath2)"/>
      <path d="M1085.7306 409.0017 L1071.3025 404.5697 L1073.5281 417.8849 Z" clip-path="url(#clipPath2)" stroke="none"/>
    </g>
    <g text-rendering="geometricPrecision" stroke-miterlimit="1.45" shape-rendering="geometricPrecision" transform="matrix(1,0,0,1,-189,-146)" stroke-linecap="butt">
      <path fill="none" d="M701.311 497.0027 L405.7979 412.0472" clip-path="url(#clipPath2)"/>
      <path d="M395.2261 409.0079 L405.1012 418.0899 L408.4167 406.557 Z" clip-path="url(#clipPath2)" stroke="none"/>
      <path fill="none" d="M766.0124 496.9814 L858.212 416.2632" clip-path="url(#clipPath2)"/>
      <path d="M866.4884 409.0175 L853.5074 412.4076 L861.4119 421.4364 Z" clip-path="url(#clipPath2)" stroke="none"/>
    </g>
    <g stroke-linecap="round" transform="matrix(1,0,0,1,-189,-146)" stroke-dashoffset="2" text-rendering="geometricPrecision" shape-rendering="geometricPrecision" stroke-dasharray="0,8" stroke-width="2" stroke-miterlimit="1.45">
      <path fill="none" d="M800.6194 497.0027 L1106.9141 412.3061" clip-path="url(#clipPath2)"/>
      <path d="M1118.8414 409.0079 L1104.0308 406.1001 L1107.6288 419.1118 Z" clip-path="url(#clipPath2)" stroke="none"/>
    </g>
    <g text-rendering="geometricPrecision" stroke-miterlimit="1.45" stroke-dasharray="6,2" shape-rendering="geometricPrecision" transform="matrix(1,0,0,1,-189,-146)" stroke-linecap="butt">
      <path fill="none" d="M687.5069 511 L565.515 511" clip-path="url(#clipPath2)"/>
      <path d="M561.515 511 L573.515 517 L561.515 511 L573.515 505 Z" clip-path="url(#clipPath2)" stroke="none"/>
      <path fill="none" stroke-miterlimit="10" stroke-dasharray="none" d="M561.515 511 L573.515 517 L561.515 511 L573.515 505 Z" clip-path="url(#clipPath2)" stroke-linecap="square"/>
      <path fill="none" stroke-dasharray="none" d="M499.3712 496.9978 L583.6472 447.5638" clip-path="url(#clipPath2)"/>
      <path stroke-dasharray="none" d="M593.1354 441.9983 L579.7489 442.8944 L585.8204 453.2451 Z" clip-path="url(#clipPath2)" stroke="none"/>
      <path fill="none" stroke-dasharray="none" d="M727.5626 496.9978 L648.7629 447.822" clip-path="url(#clipPath2)"/>
      <path stroke-dasharray="none" d="M639.431 441.9983 L646.4348 453.4416 L652.7878 443.2613 Z" clip-path="url(#clipPath2)" stroke="none"/>
      <path fill="none" stroke-dasharray="none" d="M595.2015 587.9812 L506.5238 530.9517" clip-path="url(#clipPath2)"/>
      <path stroke-dasharray="none" d="M497.2719 525.0017 L504.1194 536.5391 L510.6103 526.4462 Z" clip-path="url(#clipPath2)" stroke="none"/>
      <path fill="none" stroke-dasharray="none" d="M637.489 587.9812 L720.4575 531.2133" clip-path="url(#clipPath2)"/>
      <path stroke-dasharray="none" d="M729.5358 525.0017 L716.244 526.8261 L723.0203 536.7298 Z" clip-path="url(#clipPath2)" stroke="none"/>
    </g>
  </g>
</svg>
